<?xml version="1.0" encoding="UTF-8"?>
<!DOCTYPE svg PUBLIC "-//W3C//DTD SVG 1.1//EN" "http://www.w3.org/Graphics/SVG/1.1/DTD/svg11.dtd">
<svg xmlns="http://www.w3.org/2000/svg" version="1.1" width="1294px" height="668px" style="shape-rendering:geometricPrecision; text-rendering:geometricPrecision; image-rendering:optimizeQuality; fill-rule:evenodd; clip-rule:evenodd" xmlns:xlink="http://www.w3.org/1999/xlink">
<g><path style="opacity:1" fill="#5429cc" d="M -0.5,-0.5 C 430.833,-0.5 862.167,-0.5 1293.5,-0.5C 1293.5,89.8333 1293.5,180.167 1293.5,270.5C 1259.17,270.5 1224.83,270.5 1190.5,270.5C 1190.67,231.165 1190.5,191.832 1190,152.5C 1189.5,152 1189,151.5 1188.5,151C 1076.17,150.333 963.833,150.333 851.5,151C 851,151.5 850.5,152 850,152.5C 849.5,191.832 849.333,231.165 849.5,270.5C 838.833,270.5 828.167,270.5 817.5,270.5C 817.667,231.165 817.5,191.832 817,152.5C 816.5,152 816,151.5 815.5,151C 702.833,150.333 590.167,150.333 477.5,151C 477,151.5 476.5,152 476,152.5C 475.5,191.832 475.333,231.165 475.5,270.5C 464.833,270.5 454.167,270.5 443.5,270.5C 443.667,231.165 443.5,191.832 443,152.5C 442.5,152 442,151.5 441.5,151C 329.167,150.333 216.833,150.333 104.5,151C 104,151.5 103.5,152 103,152.5C 102.5,191.832 102.333,231.165 102.5,270.5C 68.1667,270.5 33.8333,270.5 -0.5,270.5C -0.5,180.167 -0.5,89.8333 -0.5,-0.5 Z"/></g>
<g><path style="opacity:1" fill="#6a34fe" d="M 997.5,30.5 C 1061.17,30.3333 1124.83,30.5 1188.5,31C 1189,31.5 1189.5,32 1190,32.5C 1190.67,47.1667 1190.67,61.8333 1190,76.5C 1189.5,77 1189,77.5 1188.5,78C 1124.83,78.6667 1061.17,78.6667 997.5,78C 997,77.5 996.5,77 996,76.5C 995.333,61.8333 995.333,47.1667 996,32.5C 996.717,31.9558 997.217,31.2891 997.5,30.5 Z"/></g>
<g><path style="opacity:1" fill="#3eca99" d="M 117.5,34.5 C 134.99,33.8225 143.157,42.1558 142,59.5C 137.594,70.6219 129.427,75.4552 117.5,74C 103.617,68.3651 99.4508,58.5318 105,44.5C 108.191,39.8366 112.358,36.5032 117.5,34.5 Z"/></g>
<g><path style="opacity:1" fill="#f4fcf9" d="M 122.5,41.5 C 123.451,42.9187 123.784,44.5853 123.5,46.5C 131.5,46.8333 131.5,47.1667 123.5,47.5C 123.338,49.5273 123.505,51.5273 124,53.5C 129.102,53.9266 131.102,56.5933 130,61.5C 128.509,63.0037 126.676,63.8371 124.5,64C 123.773,65.3988 123.273,66.8988 123,68.5C 122.727,66.8988 122.227,65.3988 121.5,64C 119.5,63.6667 117.5,63.3333 115.5,63C 121.08,63.9371 123.246,61.7704 122,56.5C 115.492,55.5488 113.992,52.3821 117.5,47C 119.134,46.5065 120.801,46.3398 122.5,46.5C 122.5,44.8333 122.5,43.1667 122.5,41.5 Z"/></g>
<g><path style="opacity:1" fill="#f0ecfa" d="M 169.5,44.5 C 170.833,44.5 172.167,44.5 173.5,44.5C 173.5,50.5 173.5,56.5 173.5,62.5C 169.974,62.0607 166.307,61.894 162.5,62C 159.384,59.0393 158.717,55.5393 160.5,51.5C 163.128,49.3673 165.961,49.034 169,50.5C 169.495,48.5273 169.662,46.5273 169.5,44.5 Z"/></g>
<g><path style="opacity:1" fill="#e8e0f8" d="M 177.5,45.5 C 178.5,45.5 179.5,45.5 180.5,45.5C 180.5,46.8333 180.5,48.1667 180.5,49.5C 184.5,50.1667 184.5,50.8333 180.5,51.5C 180.5,54.1667 180.5,56.8333 180.5,59.5C 181.5,59.5 182.5,59.5 183.5,59.5C 183.5,60.5 183.5,61.5 183.5,62.5C 180.453,63.1446 178.287,62.1446 177,59.5C 175.399,54.6521 175.565,49.9854 177.5,45.5 Z"/></g>
<g><path style="opacity:1" fill="#5dd4a6" d="M 119.5,47.5 C 120.5,47.5 121.5,47.5 122.5,47.5C 122.662,49.5273 122.495,51.5273 122,53.5C 119.842,54.677 118.342,54.0103 117.5,51.5C 117.752,49.9271 118.418,48.5938 119.5,47.5 Z"/></g>
<g><path style="opacity:1" fill="#eee9fa" d="M 191.5,49.5 C 198.049,49.965 204.716,50.1316 211.5,50C 212,50.5 212.5,51 213,51.5C 213.499,55.1516 213.665,58.8183 213.5,62.5C 212.167,62.5 210.833,62.5 209.5,62.5C 209.5,59.1667 209.5,55.8333 209.5,52.5C 207.833,52.5 206.167,52.5 204.5,52.5C 204.5,55.8333 204.5,59.1667 204.5,62.5C 203.167,62.5 201.833,62.5 200.5,62.5C 200.5,59.1667 200.5,55.8333 200.5,52.5C 198.533,52.2606 196.699,52.5939 195,53.5C 194.502,56.4816 194.335,59.4816 194.5,62.5C 193.5,62.5 192.5,62.5 191.5,62.5C 191.5,58.1667 191.5,53.8333 191.5,49.5 Z"/></g>
<g><path style="opacity:1" fill="#ede8f9" d="M 218.5,49.5 C 228.239,48.3864 231.239,52.2198 227.5,61C 221.367,64.1071 217.367,62.4404 215.5,56C 215.84,53.4887 216.84,51.322 218.5,49.5 Z"/></g>
<g><path style="opacity:1" fill="#eee9fa" d="M 231.5,49.5 C 235.026,49.9393 238.693,50.106 242.5,50C 243,50.5 243.5,51 244,51.5C 244.499,55.1516 244.665,58.8183 244.5,62.5C 243.5,62.5 242.5,62.5 241.5,62.5C 241.665,59.4816 241.498,56.4816 241,53.5C 239.301,52.5939 237.467,52.2606 235.5,52.5C 235.5,55.8333 235.5,59.1667 235.5,62.5C 234.167,62.5 232.833,62.5 231.5,62.5C 231.5,58.1667 231.5,53.8333 231.5,49.5 Z"/></g>
<g><path style="opacity:1" fill="#f5f2fc" d="M 249.5,49.5 C 252.187,49.3359 254.854,49.5026 257.5,50C 259.229,51.7889 259.896,53.9556 259.5,56.5C 256.428,56.1826 253.428,56.5159 250.5,57.5C 252.416,59.8098 254.749,60.1431 257.5,58.5C 259.569,58.8242 259.902,59.6575 258.5,61C 252.019,64.2878 248.353,62.4545 247.5,55.5C 247.363,53.1595 248.03,51.1595 249.5,49.5 Z"/></g>
<g><path style="opacity:1" fill="#f2eefb" d="M 261.5,49.5 C 262.978,49.238 264.311,49.5713 265.5,50.5C 266.432,52.7954 267.265,55.1287 268,57.5C 269.275,55.2827 270.275,52.9494 271,50.5C 272.011,49.6634 273.178,49.33 274.5,49.5C 272.776,54.503 270.942,59.503 269,64.5C 268.309,67.5906 266.476,68.7572 263.5,68C 264.692,66.0876 265.692,64.0876 266.5,62C 264.538,57.9459 262.871,53.7792 261.5,49.5 Z"/></g>
<g><path style="opacity:1" fill="#ddd2ff" d="M 1028.5,49.5 C 1029.5,49.4142 1030.33,49.7476 1031,50.5C 1032.33,52.5 1033.67,54.5 1035,56.5C 1035.19,54.0995 1035.69,51.7662 1036.5,49.5C 1037.83,53.1667 1037.83,56.8333 1036.5,60.5C 1034.2,58.5689 1032.36,56.2356 1031,53.5C 1030.81,55.9005 1030.31,58.2338 1029.5,60.5C 1028.51,56.8927 1028.18,53.226 1028.5,49.5 Z"/></g>
<g><path style="opacity:1" fill="#dfdfff" d="M 1073.5,50.5 C 1077.97,49.1381 1079.63,49.1381 1078.5,50.5C 1077.83,63.8333 1077.17,63.8333 1076.5,50.5C 1075.5,50.5 1074.5,50.5 1073.5,50.5 Z"/></g>
<g><path style="opacity:1" fill="#dae0ff" d="M 1099.5,51.5 C 1106.7,50.7037 1109.04,53.7037 1106.5,60.5C 1105.69,58.2338 1105.19,55.9005 1105,53.5C 1103.89,52.2889 1102.72,52.2889 1101.5,53.5C 1100.69,55.7662 1100.19,58.0995 1100,60.5C 1099.5,57.5184 1099.34,54.5184 1099.5,51.5 Z"/></g>
<g><path style="opacity:1" fill="#5c33ce" d="M 163.5,52.5 C 169.158,51.6794 170.825,53.846 168.5,59C 163.279,59.6099 161.612,57.4432 163.5,52.5 Z"/></g>
<g><path style="opacity:1" fill="#552bcc" d="M 220.5,52.5 C 225.328,52.3852 226.661,54.5519 224.5,59C 219.57,59.427 218.237,57.2604 220.5,52.5 Z"/></g>
<g><path style="opacity:1" fill="#6c44d2" d="M 251.5,51.5 C 253.665,51.1159 255.332,51.7826 256.5,53.5C 254.579,54.641 252.579,54.8077 250.5,54C 251.252,53.3292 251.586,52.4959 251.5,51.5 Z"/></g>
<g><path style="opacity:1" fill="#dfe1ff" d="M 1064.5,59.5 C 1065.83,57.1667 1065.83,54.8333 1064.5,52.5C 1065.15,52.1961 1065.82,51.8627 1066.5,51.5C 1067.83,54.5 1067.83,57.5 1066.5,60.5C 1065.82,60.1373 1065.15,59.8039 1064.5,59.5 Z"/></g>
<g><path style="opacity:1" fill="#7947ff" d="M 1064.5,52.5 C 1065.83,54.8333 1065.83,57.1667 1064.5,59.5C 1060.53,58.9245 1059.53,56.7579 1061.5,53C 1062.45,52.5172 1063.45,52.3505 1064.5,52.5 Z"/></g>
<g><path style="opacity:1" fill="#dae0ff" d="M 1110.5,51.5 C 1112.66,51.1159 1114.33,51.7826 1115.5,53.5C 1115.33,53.8333 1115.17,54.1667 1115,54.5C 1112.82,51.5315 1111.66,51.8649 1111.5,55.5C 1115.16,55.3501 1116.16,56.8501 1114.5,60C 1112.89,60.7203 1111.39,60.5536 1110,59.5C 1109.33,58.8333 1109.33,58.1667 1110,57.5C 1111.36,59.7843 1112.86,59.951 1114.5,58C 1113.11,56.98 1111.61,56.1466 1110,55.5C 1109.42,54.0715 1109.59,52.7382 1110.5,51.5 Z"/></g>
<g><path style="opacity:1" fill="#e6d4ff" d="M 1082.5,51.5 C 1084.15,52.6045 1085.82,52.7712 1087.5,52C 1085.26,54.2952 1083.92,57.1285 1083.5,60.5C 1082.52,57.5719 1082.18,54.5719 1082.5,51.5 Z"/></g>
<g><path style="opacity:1" fill="#dedcff" d="M 1151.5,51.5 C 1157.64,52.0262 1158.98,54.8595 1155.5,60C 1150.82,60.9856 1148.66,59.1522 1149,54.5C 1149.7,53.3094 1150.53,52.3094 1151.5,51.5 Z"/></g>
<g><path style="opacity:1" fill="#7847ff" d="M 1152.5,52.5 C 1157.29,54.1998 1157.62,56.5332 1153.5,59.5C 1149.97,57.5798 1149.63,55.2465 1152.5,52.5 Z"/></g>
<g><path style="opacity:1" fill="#5bd4a5" d="M 123.5,56.5 C 125.167,56.5 126.833,56.5 128.5,56.5C 128.66,58.1992 128.494,59.8659 128,61.5C 126.667,62.8333 125.333,62.8333 124,61.5C 123.506,59.8659 123.34,58.1992 123.5,56.5 Z"/></g>
<g><path style="opacity:1" fill="#dfdaff" d="M 1049.5,51.5 C 1051.12,53.1209 1052.28,55.1209 1053,57.5C 1054.11,56.0001 1054.95,54.3334 1055.5,52.5C 1056.17,51.1667 1056.83,51.1667 1057.5,52.5C 1054.03,63.1195 1051.36,62.7862 1049.5,51.5 Z"/></g>
<g><path style="opacity:1" fill="#e3e0ff" d="M 1090.5,51.5 C 1092.67,51.9202 1094.67,51.9202 1096.5,51.5C 1097.83,54.5 1097.83,57.5 1096.5,60.5C 1094.66,60.2448 1092.66,60.0781 1090.5,60C 1087.9,57.1705 1087.9,54.3371 1090.5,51.5 Z"/></g>
<g><path style="opacity:1" fill="#7a40ff" d="M 1090.5,53.5 C 1094.91,52.899 1096.24,54.5657 1094.5,58.5C 1090.32,59.3087 1088.98,57.642 1090.5,53.5 Z"/></g>
<g><path style="opacity:1" fill="#e3e0ff" d="M 1140.5,51.5 C 1142.67,51.9202 1144.67,51.9202 1146.5,51.5C 1147.83,54.5 1147.83,57.5 1146.5,60.5C 1144.66,60.2448 1142.66,60.0781 1140.5,60C 1137.9,57.1705 1137.9,54.3371 1140.5,51.5 Z"/></g>
<g><path style="opacity:1" fill="#7a40ff" d="M 1140.5,53.5 C 1144.91,52.899 1146.24,54.5657 1144.5,58.5C 1140.32,59.3087 1138.98,57.642 1140.5,53.5 Z"/></g>
<g><path style="opacity:1" fill="#dfdbff" d="M 1041.5,51.5 C 1047.37,51.2056 1049.03,53.8723 1046.5,59.5C 1039.41,60.5305 1037.74,57.8639 1041.5,51.5 Z"/></g>
<g><path style="opacity:1" fill="#7b40ff" d="M 1041.5,53.5 C 1047.18,53.8597 1047.84,55.8597 1043.5,59.5C 1040.61,58.1627 1039.94,56.1627 1041.5,53.5 Z"/></g>
<g><path style="opacity:1" fill="#e6dbff" d="M 1064.5,52.5 C 1063.45,52.3505 1062.45,52.5172 1061.5,53C 1059.53,56.7579 1060.53,58.9245 1064.5,59.5C 1061.05,61.257 1059.05,60.0904 1058.5,56C 1059.05,51.9096 1061.05,50.743 1064.5,52.5 Z"/></g>
<g><path style="opacity:1" fill="#d9d7ff" d="M 1119.5,51.5 C 1121.83,51.5 1124.17,51.5 1126.5,51.5C 1126.5,54.5 1126.5,57.5 1126.5,60.5C 1118.26,61.6183 1115.92,58.6183 1119.5,51.5 Z"/></g>
<g><path style="opacity:1" fill="#783fff" d="M 1119.5,53.5 C 1121.17,53.5 1122.83,53.5 1124.5,53.5C 1124.66,55.1992 1124.49,56.8659 1124,58.5C 1122.67,59.8333 1121.33,59.8333 1120,58.5C 1119.51,56.8659 1119.34,55.1992 1119.5,53.5 Z"/></g>
<g><path style="opacity:1" fill="#eadeff" d="M 1130.5,51.5 C 1132.83,51.2471 1134.83,51.9137 1136.5,53.5C 1134.67,53.9202 1132.67,53.9202 1130.5,53.5C 1129.68,59.2093 1131.51,60.5427 1136,57.5C 1136.45,59.4089 1135.61,60.5756 1133.5,61C 1135.97,63.5623 1135.3,64.5623 1131.5,64C 1132.17,63.6667 1132.83,63.3333 1133.5,63C 1131.03,61.2058 1129.37,58.8725 1128.5,56C 1128.52,54.167 1129.19,52.667 1130.5,51.5 Z"/></g>
<g><path style="opacity:1" fill="#fefefe" d="M 443.5,270.5 C 443.666,277.841 443.5,285.174 443,292.5C 442.5,293 442,293.5 441.5,294C 329.167,294.667 216.833,294.667 104.5,294C 104,293.5 103.5,293 103,292.5C 102.5,285.174 102.334,277.841 102.5,270.5C 102.333,231.165 102.5,191.832 103,152.5C 103.5,152 104,151.5 104.5,151C 216.833,150.333 329.167,150.333 441.5,151C 442,151.5 442.5,152 443,152.5C 443.5,191.832 443.667,231.165 443.5,270.5 Z"/></g>
<g><path style="opacity:1" fill="#fefefe" d="M 817.5,270.5 C 817.666,277.841 817.5,285.174 817,292.5C 816.5,293 816,293.5 815.5,294C 702.833,294.667 590.167,294.667 477.5,294C 477,293.5 476.5,293 476,292.5C 475.5,285.174 475.334,277.841 475.5,270.5C 475.333,231.165 475.5,191.832 476,152.5C 476.5,152 477,151.5 477.5,151C 590.167,150.333 702.833,150.333 815.5,151C 816,151.5 816.5,152 817,152.5C 817.5,191.832 817.667,231.165 817.5,270.5 Z"/></g>
<g><path style="opacity:1" fill="#33cb94" d="M 1190.5,270.5 C 1190.67,277.841 1190.5,285.174 1190,292.5C 1189.5,293 1189,293.5 1188.5,294C 1076.17,294.667 963.833,294.667 851.5,294C 851,293.5 850.5,293 850,292.5C 849.5,285.174 849.334,277.841 849.5,270.5C 849.333,231.165 849.5,191.832 850,152.5C 850.5,152 851,151.5 851.5,151C 963.833,150.333 1076.17,150.333 1188.5,151C 1189,151.5 1189.5,152 1190,152.5C 1190.5,191.832 1190.67,231.165 1190.5,270.5 Z"/></g>
<g><path style="opacity:1" fill="#f1fbf8" d="M 1141.5,175.5 C 1143.26,176.552 1143.92,178.219 1143.5,180.5C 1151.5,181.167 1151.5,181.833 1143.5,182.5C 1143.5,184.833 1143.5,187.167 1143.5,189.5C 1151.82,189.987 1153.49,193.487 1148.5,200C 1146.87,200.494 1145.2,200.66 1143.5,200.5C 1142.83,207.167 1142.17,207.167 1141.5,200.5C 1130.83,199.833 1130.83,199.167 1141.5,198.5C 1141.5,196.167 1141.5,193.833 1141.5,191.5C 1136.84,192.181 1134.18,190.181 1133.5,185.5C 1134.6,181.409 1137.27,179.742 1141.5,180.5C 1141.5,178.833 1141.5,177.167 1141.5,175.5 Z"/></g>
<g><path style="opacity:1" fill="#ea4b61" d="M 764.5,176.5 C 778.178,175.012 784.344,181.012 783,194.5C 781.833,199.667 778.667,202.833 773.5,204C 759.859,205.357 754.025,199.19 756,185.5C 757.688,181.315 760.521,178.315 764.5,176.5 Z"/></g>
<g><path style="opacity:1" fill="#fef9fa" d="M 764.5,178.5 C 779.423,178.037 784.256,184.704 779,198.5C 772.597,203.773 766.263,203.773 760,198.5C 755.543,190.332 757.043,183.665 764.5,178.5 Z"/></g>
<g><path style="opacity:1" fill="#3ece99" d="M 1136.5,182.5 C 1138.17,182.5 1139.83,182.5 1141.5,182.5C 1141.5,184.833 1141.5,187.167 1141.5,189.5C 1136.26,189.604 1134.59,187.271 1136.5,182.5 Z"/></g>
<g><path style="opacity:1" fill="#51d2a2" d="M 390.5,176.5 C 404.178,175.012 410.344,181.012 409,194.5C 407.833,199.667 404.667,202.833 399.5,204C 385.859,205.357 380.025,199.19 382,185.5C 383.688,181.315 386.521,178.315 390.5,176.5 Z"/></g>
<g><path style="opacity:1" fill="#fafdfc" d="M 391.5,178.5 C 405.714,178.593 410.214,185.259 405,198.5C 399.549,203.16 393.716,203.66 387.5,200C 381.229,191.29 382.563,184.123 391.5,178.5 Z"/></g>
<g><path style="opacity:1" fill="#43cf9b" d="M 394.5,184.5 C 397.407,185.734 399.741,187.734 401.5,190.5C 399.671,191.282 398.171,190.616 397,188.5C 396,199.167 395,199.167 394,188.5C 392.829,190.616 391.329,191.282 389.5,190.5C 391.19,188.481 392.856,186.481 394.5,184.5 Z"/></g>
<g><path style="opacity:1" fill="#e73c56" d="M 768.5,184.5 C 770.22,186.658 771.053,189.325 771,192.5C 772.171,190.384 773.671,189.718 775.5,190.5C 773.833,192.833 771.833,194.833 769.5,196.5C 767.167,194.833 765.167,192.833 763.5,190.5C 765.329,189.718 766.829,190.384 768,192.5C 768.497,189.854 768.664,187.187 768.5,184.5 Z"/></g>
<g><path style="opacity:1" fill="#625d84" d="M 135.5,185.5 C 137.527,185.338 139.527,185.505 141.5,186C 140.207,186.49 138.873,186.657 137.5,186.5C 137.5,187.833 137.5,189.167 137.5,190.5C 142.833,190.833 142.833,191.167 137.5,191.5C 137.5,192.833 137.5,194.167 137.5,195.5C 138.873,195.343 140.207,195.51 141.5,196C 139.527,196.495 137.527,196.662 135.5,196.5C 135.5,192.833 135.5,189.167 135.5,185.5 Z"/></g>
<g><path style="opacity:1" fill="#645f88" d="M 154.5,185.5 C 155.931,186.082 157.264,186.915 158.5,188C 155.833,190.667 155.833,193.333 158.5,196C 157.216,196.684 156.049,196.517 155,195.5C 154.774,192.905 154.274,190.405 153.5,188C 154.252,187.329 154.586,186.496 154.5,185.5 Z"/></g>
<g><path style="opacity:1" fill="#52557b" d="M 189.5,187.5 C 191.541,187.854 193.374,187.854 195,187.5C 195.667,190.5 195.667,193.5 195,196.5C 194.5,196 194,195.5 193.5,195C 195.084,192.175 194.418,190.008 191.5,188.5C 189.171,189.771 188.005,191.771 188,194.5C 187.167,191.829 187.667,189.496 189.5,187.5 Z"/></g>
<g><path style="opacity:1" fill="#52557b" d="M 520.5,187.5 C 522.541,187.854 524.374,187.854 526,187.5C 526.667,190.5 526.667,193.5 526,196.5C 525.5,196 525,195.5 524.5,195C 526.084,192.175 525.418,190.008 522.5,188.5C 520.171,189.771 519.005,191.771 519,194.5C 518.167,191.829 518.667,189.496 520.5,187.5 Z"/></g>
<g><path style="opacity:1" fill="#36596d" d="M 881.5,186.5 C 885.967,185.138 887.633,185.138 886.5,186.5C 885.833,199.833 885.167,199.833 884.5,186.5C 883.5,186.5 882.5,186.5 881.5,186.5 Z"/></g>
<g><path style="opacity:1" fill="#364568" d="M 912.5,195.5 C 915.167,193.167 915.167,190.833 912.5,188.5C 913.496,188.586 914.329,188.252 915,187.5C 915.667,190.5 915.667,193.5 915,196.5C 914.329,195.748 913.496,195.414 912.5,195.5 Z"/></g>
<g><path style="opacity:1" fill="#eff0ee" d="M 171.5,188.5 C 172.833,190.833 172.833,193.167 171.5,195.5C 167.527,194.925 166.527,192.758 168.5,189C 169.448,188.517 170.448,188.351 171.5,188.5 Z"/></g>
<g><path style="opacity:1" fill="#eaecea" d="M 182.5,188.5 C 183.833,190.833 183.833,193.167 182.5,195.5C 177.507,195.003 176.507,192.836 179.5,189C 180.448,188.517 181.448,188.351 182.5,188.5 Z"/></g>
<g><path style="opacity:1" fill="#eff0ee" d="M 549.5,188.5 C 550.833,190.833 550.833,193.167 549.5,195.5C 545.527,194.925 544.527,192.758 546.5,189C 547.448,188.517 548.448,188.351 549.5,188.5 Z"/></g>
<g><path style="opacity:1" fill="#36566c" d="M 901.5,185.5 C 902.931,186.082 904.264,186.915 905.5,188C 902.833,190.667 902.833,193.333 905.5,196C 904.216,196.684 903.049,196.517 902,195.5C 901.774,192.905 901.274,190.405 900.5,188C 901.252,187.329 901.586,186.496 901.5,185.5 Z"/></g>
<g><path style="opacity:1" fill="#34bd8d" d="M 912.5,188.5 C 915.167,190.833 915.167,193.167 912.5,195.5C 908.605,195.143 907.605,193.143 909.5,189.5C 910.417,188.873 911.417,188.539 912.5,188.5 Z"/></g>
<g><path style="opacity:1" fill="#62648a" d="M 510.5,185.5 C 512.144,185.286 513.644,185.62 515,186.5C 515.667,187.167 515.667,187.833 515,188.5C 513.388,185.921 511.888,185.921 510.5,188.5C 511.768,190.047 513.435,191.047 515.5,191.5C 516.272,196.442 515.605,196.608 513.5,192C 509.591,191.208 508.591,189.041 510.5,185.5 Z"/></g>
<g><path style="opacity:1" fill="#374990" d="M 146.5,188.5 C 145.772,191.079 145.272,193.746 145,196.5C 144.333,193.5 144.333,190.5 145,187.5C 145.383,188.056 145.883,188.389 146.5,188.5 Z"/></g>
<g><path style="opacity:1" fill="#5d476b" d="M 146.5,188.5 C 147.884,187.199 149.384,187.199 151,188.5C 151.667,191.167 151.667,193.833 151,196.5C 150.667,194.167 150.333,191.833 150,189.5C 148.989,188.663 147.822,188.33 146.5,188.5 Z"/></g>
<g><path style="opacity:1" fill="#475898" d="M 160.5,187.5 C 161.806,187.879 163.139,188.212 164.5,188.5C 161.983,190.457 160.816,193.124 161,196.5C 160.502,193.518 160.335,190.518 160.5,187.5 Z"/></g>
<g><path style="opacity:1" fill="#676d96" d="M 171.5,188.5 C 170.448,188.351 169.448,188.517 168.5,189C 166.527,192.758 167.527,194.925 171.5,195.5C 168.048,197.257 166.048,196.09 165.5,192C 166.048,187.91 168.048,186.743 171.5,188.5 Z"/></g>
<g><path style="opacity:1" fill="#6d6184" d="M 182.5,195.5 C 183.833,193.167 183.833,190.833 182.5,188.5C 183.161,187.282 183.828,185.949 184.5,184.5C 185.833,188.5 185.833,192.5 184.5,196.5C 183.817,196.137 183.15,195.804 182.5,195.5 Z"/></g>
<g><path style="opacity:1" fill="#5a577b" d="M 199.5,187.5 C 201.144,187.286 202.644,187.62 204,188.5C 204.667,189.167 204.667,189.833 204,190.5C 202.637,188.216 201.137,188.049 199.5,190C 200.891,191.02 202.391,191.853 204,192.5C 204.551,196.193 204.051,196.36 202.5,193C 198.75,192.558 197.75,190.724 199.5,187.5 Z"/></g>
<g><path style="opacity:1" fill="#676d96" d="M 549.5,188.5 C 548.448,188.351 547.448,188.517 546.5,189C 544.527,192.758 545.527,194.925 549.5,195.5C 546.048,197.257 544.048,196.09 543.5,192C 544.048,187.91 546.048,186.743 549.5,188.5 Z"/></g>
<g><path style="opacity:1" fill="#73718f" d="M 555.5,187.5 C 559.838,187.622 560.172,187.955 556.5,188.5C 556.5,189.5 556.5,190.5 556.5,191.5C 560.172,191.183 561.838,192.849 561.5,196.5C 559.208,196.756 557.041,196.423 555,195.5C 554.333,194.833 554.333,194.167 555,193.5C 556.241,195.421 557.741,195.754 559.5,194.5C 558.345,193.05 556.845,192.05 555,191.5C 554.421,190.072 554.588,188.738 555.5,187.5 Z"/></g>
<g><path style="opacity:1" fill="#3bcd98" d="M 1143.5,191.5 C 1148.21,191.201 1149.88,193.201 1148.5,197.5C 1146.95,198.452 1145.29,198.785 1143.5,198.5C 1143.5,196.167 1143.5,193.833 1143.5,191.5 Z"/></g>
<g><path style="opacity:1" fill="#58547b" d="M 182.5,188.5 C 181.448,188.351 180.448,188.517 179.5,189C 176.507,192.836 177.507,195.003 182.5,195.5C 179.048,197.257 177.048,196.09 176.5,192C 177.048,187.91 179.048,186.743 182.5,188.5 Z"/></g>
<g><path style="opacity:1" fill="#36556a" d="M 912.5,188.5 C 911.417,188.539 910.417,188.873 909.5,189.5C 907.605,193.143 908.605,195.143 912.5,195.5C 909.107,197.281 907.107,196.114 906.5,192C 907.107,187.886 909.107,186.719 912.5,188.5 Z"/></g>
<g><path style="opacity:1" fill="#70607a" d="M 171.5,195.5 C 172.833,193.167 172.833,190.833 171.5,188.5C 172.15,188.196 172.817,187.863 173.5,187.5C 174.833,190.5 174.833,193.5 173.5,196.5C 172.817,196.137 172.15,195.804 171.5,195.5 Z"/></g>
<g><path style="opacity:1" fill="#70607a" d="M 549.5,195.5 C 550.833,193.167 550.833,190.833 549.5,188.5C 550.15,188.196 550.817,187.863 551.5,187.5C 552.833,190.5 552.833,193.5 551.5,196.5C 550.817,196.137 550.15,195.804 549.5,195.5 Z"/></g>
<g><path style="opacity:1" fill="#565987" d="M 538.5,188.5 C 540.045,187.77 540.878,186.437 541,184.5C 541.667,188.5 541.667,192.5 541,196.5C 539.026,196.374 536.859,196.208 534.5,196C 533.398,193.599 533.231,191.099 534,188.5C 535.616,187.199 537.116,187.199 538.5,188.5 Z"/></g>
<g><path style="opacity:1" fill="#eaeae8" d="M 538.5,188.5 C 541.599,193.215 540.432,195.215 535,194.5C 533.608,190.78 534.775,188.78 538.5,188.5 Z"/></g>
<g><path style="opacity:1" fill="#365b6c" d="M 892.5,187.5 C 899.486,187.331 901.153,190.164 897.5,196C 890.416,196.475 888.749,193.642 892.5,187.5 Z"/></g>
<g><path style="opacity:1" fill="#34be8d" d="M 893.5,188.5 C 897.473,189.075 898.473,191.242 896.5,195C 895.216,195.684 894.049,195.517 893,194.5C 892.322,192.402 892.489,190.402 893.5,188.5 Z"/></g>
<g><path style="opacity:1" fill="#364864" d="M 910.5,232.5 C 912.048,232.821 912.715,233.821 912.5,235.5C 916.167,235.833 918.167,237.833 918.5,241.5C 916.019,241.677 914.186,240.677 913,238.5C 912.186,240.902 912.353,243.235 913.5,245.5C 918.077,246.921 919.577,249.921 918,254.5C 916.736,256.607 914.903,257.607 912.5,257.5C 911.833,261.5 911.167,261.5 910.5,257.5C 906.307,257.638 903.973,255.638 903.5,251.5C 906.049,251.441 908.049,252.441 909.5,254.5C 910.474,252.257 910.808,249.924 910.5,247.5C 903.426,246.518 901.76,243.018 905.5,237C 907.025,235.991 908.692,235.491 910.5,235.5C 910.5,234.5 910.5,233.5 910.5,232.5 Z"/></g>
<g><path style="opacity:1" fill="#40476d" d="M 218.5,233.5 C 223.509,232.771 227.342,234.437 230,238.5C 230.667,242.833 230.667,247.167 230,251.5C 227.983,256.924 224.15,258.758 218.5,257C 216.513,255.681 215.346,253.848 215,251.5C 213.54,244.845 214.707,238.845 218.5,233.5 Z"/></g>
<g><path style="opacity:1" fill="#40476d" d="M 259.5,233.5 C 264.509,232.771 268.342,234.437 271,238.5C 271.667,242.833 271.667,247.167 271,251.5C 268.983,256.924 265.15,258.758 259.5,257C 257.513,255.681 256.346,253.848 256,251.5C 254.54,244.845 255.707,238.845 259.5,233.5 Z"/></g>
<g><path style="opacity:1" fill="#464c71" d="M 287.5,233.5 C 293.019,232.597 296.852,234.597 299,239.5C 299.667,243.5 299.667,247.5 299,251.5C 296.983,256.924 293.15,258.758 287.5,257C 285.951,255.786 284.785,254.286 284,252.5C 283.333,247.5 283.333,242.5 284,237.5C 285.376,236.295 286.542,234.962 287.5,233.5 Z"/></g>
<g><path style="opacity:1" fill="#484b6d" d="M 610.5,233.5 C 613.32,233.248 615.986,233.748 618.5,235C 620.037,236.11 620.703,237.61 620.5,239.5C 618.19,238.543 615.856,237.543 613.5,236.5C 609.746,237.852 608.579,240.518 610,244.5C 613.864,241.75 617.531,242.084 621,245.5C 623.29,254.789 619.79,258.622 610.5,257C 605.854,251.689 604.354,245.523 606,238.5C 607.707,236.963 609.207,235.296 610.5,233.5 Z"/></g>
<g><path style="opacity:1" fill="#4d4e71" d="M 630.5,233.5 C 636.019,232.597 639.852,234.597 642,239.5C 643.091,245.097 642.424,250.43 640,255.5C 632.683,259.617 628.016,257.617 626,249.5C 624.21,243.073 625.71,237.74 630.5,233.5 Z"/></g>
<g><path style="opacity:1" fill="#40476d" d="M 678.5,233.5 C 683.509,232.771 687.342,234.437 690,238.5C 690.667,242.833 690.667,247.167 690,251.5C 687.983,256.924 684.15,258.758 678.5,257C 676.513,255.681 675.346,253.848 675,251.5C 673.54,244.845 674.707,238.845 678.5,233.5 Z"/></g>
<g><path style="opacity:1" fill="#374a65" d="M 986.5,233.5 C 992.308,232.652 996.142,234.985 998,240.5C 998.937,245.403 998.27,250.07 996,254.5C 992.547,257.769 988.714,258.269 984.5,256C 981.695,250.845 980.862,245.345 982,239.5C 982.804,236.854 984.304,234.854 986.5,233.5 Z"/></g>
<g><path style="opacity:1" fill="#364562" d="M 1007.5,233.5 C 1012.28,232.641 1015.78,234.308 1018,238.5C 1018.84,243.921 1018.51,249.254 1017,254.5C 1013.55,257.769 1009.71,258.269 1005.5,256C 1004.11,254.829 1003.27,253.329 1003,251.5C 1002.33,247.167 1002.33,242.833 1003,238.5C 1004.02,236.313 1005.52,234.646 1007.5,233.5 Z"/></g>
<g><path style="opacity:1" fill="#364964" d="M 1034.5,233.5 C 1040.12,232.224 1043.95,234.224 1046,239.5C 1047.17,245.216 1046.33,250.55 1043.5,255.5C 1036.34,259.553 1031.84,257.553 1030,249.5C 1028.72,243.277 1030.22,237.944 1034.5,233.5 Z"/></g>
<g><path style="opacity:1" fill="#364562" d="M 1055.5,233.5 C 1060.28,232.641 1063.78,234.308 1066,238.5C 1066.84,243.921 1066.51,249.254 1065,254.5C 1061.55,257.769 1057.71,258.269 1053.5,256C 1052.11,254.829 1051.27,253.329 1051,251.5C 1050.33,247.167 1050.33,242.833 1051,238.5C 1052.02,236.313 1053.52,234.646 1055.5,233.5 Z"/></g>
<g><path style="opacity:1" fill="#44496c" d="M 191.5,233.5 C 196.254,232.543 199.587,234.21 201.5,238.5C 201,238.833 200.5,239.167 200,239.5C 193.3,234.541 189.966,236.207 190,244.5C 198.275,240.776 202.275,243.443 202,252.5C 198.987,257.535 194.82,258.702 189.5,256C 186.695,250.845 185.862,245.345 187,239.5C 187.599,236.746 189.099,234.746 191.5,233.5 Z"/></g>
<g><path style="opacity:1" fill="#494d70" d="M 239.5,233.5 C 243.803,232.796 247.303,234.13 250,237.5C 252.31,243.362 251.976,249.029 249,254.5C 242.486,259.418 237.819,258.085 235,250.5C 234.333,246.5 234.333,242.5 235,238.5C 236.059,236.341 237.559,234.674 239.5,233.5 Z"/></g>
<g><path style="opacity:1" fill="#414467" d="M 308.5,233.5 C 313.28,232.641 316.78,234.308 319,238.5C 319.839,243.921 319.506,249.254 318,254.5C 312.035,259.175 307.368,258.175 304,251.5C 303.333,247.5 303.333,243.5 304,239.5C 304.599,236.746 306.099,234.746 308.5,233.5 Z"/></g>
<g><path style="opacity:1" fill="#4e4a6c" d="M 586.5,234.5 C 588.5,234.5 590.5,234.5 592.5,234.5C 592.5,242.167 592.5,249.833 592.5,257.5C 591.167,257.5 589.833,257.5 588.5,257.5C 588.95,249.672 588.283,242.006 586.5,234.5 Z"/></g>
<g><path style="opacity:1" fill="#414467" d="M 651.5,233.5 C 656.28,232.641 659.78,234.308 662,238.5C 662.839,243.921 662.506,249.254 661,254.5C 655.035,259.175 650.368,258.175 647,251.5C 646.333,247.5 646.333,243.5 647,239.5C 647.599,236.746 649.099,234.746 651.5,233.5 Z"/></g>
<g><path style="opacity:1" fill="#494d70" d="M 699.5,233.5 C 703.803,232.796 707.303,234.13 710,237.5C 712.31,243.362 711.976,249.029 709,254.5C 702.486,259.418 697.819,258.085 695,250.5C 694.333,246.5 694.333,242.5 695,238.5C 696.059,236.341 697.559,234.674 699.5,233.5 Z"/></g>
<g><path style="opacity:1" fill="#364864" d="M 942.5,234.5 C 944.167,234.5 945.833,234.5 947.5,234.5C 947.5,239.5 947.5,244.5 947.5,249.5C 948.5,249.5 949.5,249.5 950.5,249.5C 950.5,250.5 950.5,251.5 950.5,252.5C 949.5,252.5 948.5,252.5 947.5,252.5C 947.5,254.167 947.5,255.833 947.5,257.5C 946.167,257.5 944.833,257.5 943.5,257.5C 943.5,255.833 943.5,254.167 943.5,252.5C 939.833,252.5 936.167,252.5 932.5,252.5C 932.343,251.127 932.51,249.793 933,248.5C 936.388,243.952 939.555,239.286 942.5,234.5 Z"/></g>
<g><path style="opacity:1" fill="#364262" d="M 970.5,234.5 C 972.167,234.5 973.833,234.5 975.5,234.5C 975.5,239.5 975.5,244.5 975.5,249.5C 976.5,249.5 977.5,249.5 978.5,249.5C 978.5,250.5 978.5,251.5 978.5,252.5C 977.5,252.5 976.5,252.5 975.5,252.5C 975.5,254.167 975.5,255.833 975.5,257.5C 974.5,257.5 973.5,257.5 972.5,257.5C 972.5,255.833 972.5,254.167 972.5,252.5C 968.5,252.5 964.5,252.5 960.5,252.5C 960.491,250.692 960.991,249.025 962,247.5C 965.352,243.451 968.185,239.118 970.5,234.5 Z"/></g>
<g><path style="opacity:1" fill="#3d446a" d="M 137.5,235.5 C 141.936,235.21 146.27,235.71 150.5,237C 153.735,242.006 152.735,245.839 147.5,248.5C 149.167,251.167 150.833,253.833 152.5,256.5C 151.277,257.614 149.944,257.781 148.5,257C 147.206,254.913 146.039,252.746 145,250.5C 143.89,248.963 142.39,248.297 140.5,248.5C 140.5,251.5 140.5,254.5 140.5,257.5C 139.5,257.5 138.5,257.5 137.5,257.5C 137.5,250.167 137.5,242.833 137.5,235.5 Z"/></g>
<g><path style="opacity:1" fill="#474a70" d="M 163.5,232.5 C 165.048,232.821 165.715,233.821 165.5,235.5C 169.806,235.303 171.806,237.303 171.5,241.5C 170.167,241.5 168.833,241.5 167.5,241.5C 167.719,240.325 167.386,239.325 166.5,238.5C 165.526,240.743 165.192,243.076 165.5,245.5C 172.582,246.402 174.249,249.902 170.5,256C 168.975,257.009 167.308,257.509 165.5,257.5C 164.833,261.5 164.167,261.5 163.5,257.5C 159.194,257.697 157.194,255.697 157.5,251.5C 159.912,251.244 161.579,252.244 162.5,254.5C 163.474,252.257 163.808,249.924 163.5,247.5C 159.207,247.701 157.207,245.701 157.5,241.5C 157.207,237.299 159.207,235.299 163.5,235.5C 163.5,234.5 163.5,233.5 163.5,232.5 Z"/></g>
<g><path style="opacity:1" fill="#44496e" d="M 537.5,235.5 C 541.182,235.335 544.848,235.501 548.5,236C 552.292,238.053 553.458,241.219 552,245.5C 550.702,246.56 549.535,247.726 548.5,249C 549.91,251.818 551.577,254.485 553.5,257C 551.741,257.798 550.074,257.631 548.5,256.5C 547.474,252.486 545.14,249.819 541.5,248.5C 541.5,251.5 541.5,254.5 541.5,257.5C 540.167,257.5 538.833,257.5 537.5,257.5C 537.5,250.167 537.5,242.833 537.5,235.5 Z"/></g>
<g><path style="opacity:1" fill="#4a4a6b" d="M 563.5,232.5 C 565.048,232.821 565.715,233.821 565.5,235.5C 569.72,235.427 572.054,237.427 572.5,241.5C 569.951,241.559 567.951,240.559 566.5,238.5C 565.526,240.743 565.192,243.076 565.5,245.5C 572.582,246.402 574.249,249.902 570.5,256C 568.975,257.009 567.308,257.509 565.5,257.5C 564.833,261.5 564.167,261.5 563.5,257.5C 559.833,257.167 557.833,255.167 557.5,251.5C 558.833,251.5 560.167,251.5 561.5,251.5C 561.281,252.675 561.614,253.675 562.5,254.5C 563.474,252.257 563.808,249.924 563.5,247.5C 558.224,246.707 556.391,243.707 558,238.5C 559.264,236.393 561.097,235.393 563.5,235.5C 563.5,234.5 563.5,233.5 563.5,232.5 Z"/></g>
<g><path style="opacity:1" fill="#364763" d="M 883.5,235.5 C 887.182,235.335 890.848,235.501 894.5,236C 901.128,240.07 901.128,244.236 894.5,248.5C 895.789,251.58 897.455,254.414 899.5,257C 898.167,257.667 896.833,257.667 895.5,257C 893.623,254.749 892.123,252.249 891,249.5C 889.989,248.663 888.822,248.33 887.5,248.5C 887.5,251.5 887.5,254.5 887.5,257.5C 886.167,257.5 884.833,257.5 883.5,257.5C 883.5,250.167 883.5,242.833 883.5,235.5 Z"/></g>
<g><path style="opacity:1" fill="#f0efed" d="M 220.5,236.5 C 225.734,236.753 228.067,239.586 227.5,245C 227.435,247.591 226.935,250.091 226,252.5C 222.512,255.462 219.845,254.795 218,250.5C 216.718,245.295 217.551,240.628 220.5,236.5 Z"/></g>
<g><path style="opacity:1" fill="#f7f5f3" d="M 241.5,236.5 C 246.597,237.285 248.597,240.285 247.5,245.5C 248.563,250.148 246.896,253.148 242.5,254.5C 240.575,254.41 239.408,253.41 239,251.5C 238.333,247.167 238.333,242.833 239,238.5C 239.995,237.934 240.828,237.267 241.5,236.5 Z"/></g>
<g><path style="opacity:1" fill="#f0efed" d="M 261.5,236.5 C 266.734,236.753 269.067,239.586 268.5,245C 268.435,247.591 267.935,250.091 267,252.5C 263.512,255.462 260.845,254.795 259,250.5C 257.718,245.295 258.551,240.628 261.5,236.5 Z"/></g>
<g><path style="opacity:1" fill="#f6f8f5" d="M 289.5,236.5 C 291.582,236.472 293.416,237.139 295,238.5C 295.667,242.833 295.667,247.167 295,251.5C 292.383,255.476 289.716,255.476 287,251.5C 286.333,247.5 286.333,243.5 287,239.5C 288.045,238.627 288.878,237.627 289.5,236.5 Z"/></g>
<g><path style="opacity:1" fill="#eeeeef" d="M 309.5,236.5 C 312.325,236.081 314.491,237.081 316,239.5C 316.667,243.167 316.667,246.833 316,250.5C 313,255.833 310,255.833 307,250.5C 305.718,245.295 306.551,240.628 309.5,236.5 Z"/></g>
<g><path style="opacity:1" fill="#f6f8f5" d="M 632.5,236.5 C 634.582,236.472 636.416,237.139 638,238.5C 638.667,242.833 638.667,247.167 638,251.5C 635.383,255.476 632.716,255.476 630,251.5C 629.333,247.5 629.333,243.5 630,239.5C 631.045,238.627 631.878,237.627 632.5,236.5 Z"/></g>
<g><path style="opacity:1" fill="#eeeeef" d="M 652.5,236.5 C 655.325,236.081 657.491,237.081 659,239.5C 659.667,243.167 659.667,246.833 659,250.5C 656,255.833 653,255.833 650,250.5C 648.718,245.295 649.551,240.628 652.5,236.5 Z"/></g>
<g><path style="opacity:1" fill="#f0efee" d="M 680.5,236.5 C 685.734,236.753 688.067,239.586 687.5,245C 687.435,247.591 686.935,250.091 686,252.5C 682.512,255.462 679.845,254.795 678,250.5C 676.718,245.295 677.551,240.628 680.5,236.5 Z"/></g>
<g><path style="opacity:1" fill="#f6f5f3" d="M 701.5,236.5 C 706.597,237.285 708.597,240.285 707.5,245.5C 708.563,250.148 706.896,253.148 702.5,254.5C 700.575,254.41 699.408,253.41 699,251.5C 698.333,247.167 698.333,242.833 699,238.5C 699.995,237.934 700.828,237.267 701.5,236.5 Z"/></g>
<g><path style="opacity:1" fill="#33c590" d="M 987.5,236.5 C 990.325,236.081 992.491,237.081 994,239.5C 994.667,243.167 994.667,246.833 994,250.5C 991.671,255.261 989.005,255.595 986,251.5C 985.017,246.28 985.517,241.28 987.5,236.5 Z"/></g>
<g><path style="opacity:1" fill="#34c190" d="M 1008.5,236.5 C 1013.73,236.753 1016.07,239.586 1015.5,245C 1015.43,247.591 1014.93,250.091 1014,252.5C 1009.91,255.637 1007.24,254.637 1006,249.5C 1004.84,244.693 1005.68,240.36 1008.5,236.5 Z"/></g>
<g><path style="opacity:1" fill="#33c691" d="M 1036.5,236.5 C 1038.99,236.329 1040.83,237.329 1042,239.5C 1042.67,243.5 1042.67,247.5 1042,251.5C 1039.33,255.5 1036.67,255.5 1034,251.5C 1033.33,247.5 1033.33,243.5 1034,239.5C 1035.04,238.627 1035.88,237.627 1036.5,236.5 Z"/></g>
<g><path style="opacity:1" fill="#34c190" d="M 1056.5,236.5 C 1061.73,236.753 1064.07,239.586 1063.5,245C 1063.43,247.591 1062.93,250.091 1062,252.5C 1057.91,255.637 1055.24,254.637 1054,249.5C 1052.84,244.693 1053.68,240.36 1056.5,236.5 Z"/></g>
<g><path style="opacity:1" fill="#f4f7f4" d="M 140.5,238.5 C 142.857,238.337 145.19,238.503 147.5,239C 148.833,241 148.833,243 147.5,245C 145.19,245.497 142.857,245.663 140.5,245.5C 140.5,243.167 140.5,240.833 140.5,238.5 Z"/></g>
<g><path style="opacity:1" fill="#fdf8f3" d="M 541.5,238.5 C 543.527,238.338 545.527,238.505 547.5,239C 550.167,241 550.167,243 547.5,245C 545.527,245.495 543.527,245.662 541.5,245.5C 541.5,243.167 541.5,240.833 541.5,238.5 Z"/></g>
<g><path style="opacity:1" fill="#33c791" d="M 887.5,238.5 C 889.527,238.338 891.527,238.505 893.5,239C 896.167,241 896.167,243 893.5,245C 891.527,245.495 889.527,245.662 887.5,245.5C 887.5,243.167 887.5,240.833 887.5,238.5 Z"/></g>
<g><path style="opacity:1" fill="#ebf2ea" d="M 161.5,238.5 C 162.693,238.97 163.36,239.97 163.5,241.5C 163.254,245.028 162.254,245.028 160.5,241.5C 160.685,240.416 161.018,239.416 161.5,238.5 Z"/></g>
<g><path style="opacity:1" fill="#dcedf3" d="M 561.5,238.5 C 562.693,238.97 563.36,239.97 563.5,241.5C 563.254,245.028 562.254,245.028 560.5,241.5C 560.685,240.416 561.018,239.416 561.5,238.5 Z"/></g>
<g><path style="opacity:1" fill="#33ba8a" d="M 908.5,238.5 C 909.693,238.97 910.36,239.97 910.5,241.5C 909.709,245.285 908.709,245.285 907.5,241.5C 907.685,240.416 908.018,239.416 908.5,238.5 Z"/></g>
<g><path style="opacity:1" fill="#33c693" d="M 942.5,239.5 C 943.479,242.625 943.813,245.958 943.5,249.5C 941.143,249.663 938.81,249.497 936.5,249C 938.636,245.89 940.636,242.723 942.5,239.5 Z"/></g>
<g><path style="opacity:1" fill="#33c08d" d="M 971.5,238.5 C 972.482,241.962 972.815,245.629 972.5,249.5C 970.076,249.808 967.743,249.474 965.5,248.5C 967.952,245.394 969.952,242.061 971.5,238.5 Z"/></g>
<g><path style="opacity:1" fill="#3c3f61" d="M 510.5,244.5 C 514.833,244.5 519.167,244.5 523.5,244.5C 523.5,245.5 523.5,246.5 523.5,247.5C 519.167,247.5 514.833,247.5 510.5,247.5C 510.5,246.5 510.5,245.5 510.5,244.5 Z"/></g>
<g><path style="opacity:1" fill="#f6f3f0" d="M 611.5,245.5 C 618.486,245.331 620.153,248.164 616.5,254C 609.416,254.475 607.749,251.642 611.5,245.5 Z"/></g>
<g><path style="opacity:1" fill="#f1f3f4" d="M 192.5,245.5 C 197.934,245.59 199.601,248.257 197.5,253.5C 191.87,255.368 189.37,253.368 190,247.5C 190.995,246.934 191.828,246.267 192.5,245.5 Z"/></g>
<g><path style="opacity:1" fill="#e9eadc" d="M 165.5,248.5 C 167.484,248.484 168.484,249.484 168.5,251.5C 168.547,253 167.881,254 166.5,254.5C 165.534,252.604 165.201,250.604 165.5,248.5 Z"/></g>
<g><path style="opacity:1" fill="#e1e9e9" d="M 565.5,248.5 C 567.484,248.484 568.484,249.484 568.5,251.5C 568.547,253 567.881,254 566.5,254.5C 565.534,252.604 565.201,250.604 565.5,248.5 Z"/></g>
<g><path style="opacity:1" fill="#33bc89" d="M 912.5,248.5 C 915.839,250.147 916.173,252.147 913.5,254.5C 912.534,252.604 912.201,250.604 912.5,248.5 Z"/></g>
<g><path style="opacity:1" fill="#454b71" d="M 207.5,252.5 C 210.956,253.536 211.29,255.203 208.5,257.5C 206.296,256.218 205.962,254.551 207.5,252.5 Z"/></g>
<g><path style="opacity:1" fill="#514d70" d="M 275.5,252.5 C 276.833,252.5 278.167,252.5 279.5,252.5C 275.923,264.136 274.59,264.136 275.5,252.5 Z"/></g>
<g><path style="opacity:1" fill="#454b71" d="M 598.5,252.5 C 601.956,253.536 602.29,255.203 599.5,257.5C 597.296,256.218 596.962,254.551 598.5,252.5 Z"/></g>
<g><path style="opacity:1" fill="#514d70" d="M 666.5,252.5 C 667.833,252.5 669.167,252.5 670.5,252.5C 666.923,264.136 665.59,264.136 666.5,252.5 Z"/></g>
<g><path style="opacity:1" fill="#375267" d="M 954.5,252.5 C 956.252,252.418 957.252,253.251 957.5,255C 956.125,258.069 954.459,258.236 952.5,255.5C 953.193,254.482 953.859,253.482 954.5,252.5 Z"/></g>
<g><path style="opacity:1" fill="#364a64" d="M 1023.5,252.5 C 1024.5,252.5 1025.5,252.5 1026.5,252.5C 1025.99,255.852 1024.66,258.852 1022.5,261.5C 1021.39,258.374 1021.72,255.374 1023.5,252.5 Z"/></g>
<g><path style="opacity:1" fill="#eff1f4" d="M -0.5,270.5 C 33.8333,270.5 68.1667,270.5 102.5,270.5C 102.334,277.841 102.5,285.174 103,292.5C 103.5,293 104,293.5 104.5,294C 216.833,294.667 329.167,294.667 441.5,294C 442,293.5 442.5,293 443,292.5C 443.5,285.174 443.666,277.841 443.5,270.5C 454.167,270.5 464.833,270.5 475.5,270.5C 475.334,277.841 475.5,285.174 476,292.5C 476.5,293 477,293.5 477.5,294C 590.167,294.667 702.833,294.667 815.5,294C 816,293.5 816.5,293 817,292.5C 817.5,285.174 817.666,277.841 817.5,270.5C 828.167,270.5 838.833,270.5 849.5,270.5C 849.334,277.841 849.5,285.174 850,292.5C 850.5,293 851,293.5 851.5,294C 963.833,294.667 1076.17,294.667 1188.5,294C 1189,293.5 1189.5,293 1190,292.5C 1190.5,285.174 1190.67,277.841 1190.5,270.5C 1224.83,270.5 1259.17,270.5 1293.5,270.5C 1293.5,402.833 1293.5,535.167 1293.5,667.5C 862.167,667.5 430.833,667.5 -0.5,667.5C -0.5,535.167 -0.5,402.833 -0.5,270.5 Z"/></g>
<g><path style="opacity:1" fill="#a4acc6" d="M 804.5,390.5 C 806.674,390.92 808.674,390.92 810.5,390.5C 811.98,394.86 811.647,399.026 809.5,403C 806.672,403.969 804.338,403.303 802.5,401C 804.107,400.885 805.607,401.385 807,402.5C 809.188,401.941 809.854,400.607 809,398.5C 803.812,399.98 801.812,397.98 803,392.5C 803.717,391.956 804.217,391.289 804.5,390.5 Z"/></g>
<g><path style="opacity:1" fill="#e9eced" d="M 805.5,391.5 C 810.289,393.2 810.622,395.533 806.5,398.5C 802.967,396.58 802.633,394.246 805.5,391.5 Z"/></g>
<g><path style="opacity:1" fill="#a0a5c0" d="M 815.5,390.5 C 821.643,391.026 822.976,393.86 819.5,399C 814.504,399.664 812.67,397.498 814,392.5C 814.717,391.956 815.217,391.289 815.5,390.5 Z"/></g>
<g><path style="opacity:1" fill="#e9ebec" d="M 816.5,391.5 C 821.289,393.2 821.622,395.533 817.5,398.5C 813.967,396.58 813.633,394.246 816.5,391.5 Z"/></g>
<g><path style="opacity:1" fill="#a3abc5" d="M 835.5,390.5 C 837.674,390.92 839.674,390.92 841.5,390.5C 842.833,393.5 842.833,396.5 841.5,399.5C 839.657,399.245 837.657,399.078 835.5,399C 832.899,396.17 832.899,393.337 835.5,390.5 Z"/></g>
<g><path style="opacity:1" fill="#e9eced" d="M 836.5,391.5 C 841.289,393.2 841.622,395.533 837.5,398.5C 833.967,396.58 833.633,394.246 836.5,391.5 Z"/></g>
<g><path style="opacity:1" fill="#a4acc6" d="M 991.5,388.5 C 996.768,387.185 1000.1,389.018 1001.5,394C 1000.1,398.982 996.768,400.815 991.5,399.5C 991.5,395.833 991.5,392.167 991.5,388.5 Z"/></g>
<g><path style="opacity:1" fill="#ebedee" d="M 993.5,389.5 C 999.643,390.026 1000.98,392.86 997.5,398C 996.207,398.49 994.873,398.657 993.5,398.5C 993.5,395.5 993.5,392.5 993.5,389.5 Z"/></g>
<g><path style="opacity:1" fill="#b9bed0" d="M 547.5,390.5 C 554.444,390.272 556.11,393.106 552.5,399C 545.416,399.475 543.749,396.642 547.5,390.5 Z"/></g>
<g><path style="opacity:1" fill="#fefefe" d="M 112.5,430.5 C 233.834,430.333 355.167,430.5 476.5,431C 477,431.5 477.5,432 478,432.5C 478.667,450.167 478.667,467.833 478,485.5C 477.5,486 477,486.5 476.5,487C 355.167,487.667 233.833,487.667 112.5,487C 112,486.5 111.5,486 111,485.5C 110.333,467.833 110.333,450.167 111,432.5C 111.717,431.956 112.217,431.289 112.5,430.5 Z"/></g>
<g><path style="opacity:1" fill="#fefefe" d="M 488.5,430.5 C 565.834,430.333 643.167,430.5 720.5,431C 721,431.5 721.5,432 722,432.5C 722.667,450.167 722.667,467.833 722,485.5C 721.5,486 721,486.5 720.5,487C 643.167,487.667 565.833,487.667 488.5,487C 488,486.5 487.5,486 487,485.5C 486.333,467.833 486.333,450.167 487,432.5C 487.717,431.956 488.217,431.289 488.5,430.5 Z"/></g>
<g><path style="opacity:1" fill="#fefefe" d="M 732.5,430.5 C 804.501,430.333 876.501,430.5 948.5,431C 949,431.5 949.5,432 950,432.5C 950.667,450.167 950.667,467.833 950,485.5C 949.5,486 949,486.5 948.5,487C 876.5,487.667 804.5,487.667 732.5,487C 732,486.5 731.5,486 731,485.5C 730.333,467.833 730.333,450.167 731,432.5C 731.717,431.956 732.217,431.289 732.5,430.5 Z"/></g>
<g><path style="opacity:1" fill="#fefefe" d="M 960.5,430.5 C 1033.83,430.333 1107.17,430.5 1180.5,431C 1181,431.5 1181.5,432 1182,432.5C 1182.67,450.167 1182.67,467.833 1182,485.5C 1181.5,486 1181,486.5 1180.5,487C 1107.17,487.667 1033.83,487.667 960.5,487C 960,486.5 959.5,486 959,485.5C 958.333,467.833 958.333,450.167 959,432.5C 959.717,431.956 960.217,431.289 960.5,430.5 Z"/></g>
<g><path style="opacity:1" fill="#6bd8ba" d="M 559.5,452.5 C 561.722,452.178 563.556,452.845 565,454.5C 566.004,457.993 565.504,461.159 563.5,464C 558.968,464.535 556.968,462.368 557.5,457.5C 557.724,455.545 558.391,453.879 559.5,452.5 Z"/></g>
<g><path style="opacity:1" fill="#6bd8ba" d="M 569.5,452.5 C 571.722,452.178 573.556,452.845 575,454.5C 576.004,457.993 575.504,461.159 573.5,464C 568.968,464.535 566.968,462.368 567.5,457.5C 567.724,455.545 568.391,453.879 569.5,452.5 Z"/></g>
<g><path style="opacity:1" fill="#83dab4" d="M 532.5,451.5 C 533.474,452.635 534.641,453.635 536,454.5C 536.627,456.586 536.127,456.919 534.5,455.5C 534.167,456 533.833,456.5 533.5,457C 535.085,458.289 536.419,459.789 537.5,461.5C 536.788,463.611 535.288,464.611 533,464.5C 531.338,464.612 530.171,463.946 529.5,462.5C 530.274,461.289 531.107,461.289 532,462.5C 532.167,462 532.333,461.5 532.5,461C 531.523,459.503 530.523,458.003 529.5,456.5C 530.267,454.643 531.267,452.976 532.5,451.5 Z"/></g>
<g><path style="opacity:1" fill="#fdfef9" d="M 559.5,454.5 C 560.833,454.5 562.167,454.5 563.5,454.5C 563.5,457.167 563.5,459.833 563.5,462.5C 562.167,462.5 560.833,462.5 559.5,462.5C 559.5,459.833 559.5,457.167 559.5,454.5 Z"/></g>
<g><path style="opacity:1" fill="#fdfef9" d="M 569.5,454.5 C 570.833,454.5 572.167,454.5 573.5,454.5C 573.5,457.167 573.5,459.833 573.5,462.5C 572.167,462.5 570.833,462.5 569.5,462.5C 569.5,459.833 569.5,457.167 569.5,454.5 Z"/></g>
<g><path style="opacity:1" fill="#a8aec8" d="M 143.5,453.5 C 145.857,453.337 148.19,453.503 150.5,454C 148.866,454.494 147.199,454.66 145.5,454.5C 145.5,455.833 145.5,457.167 145.5,458.5C 150.833,458.833 150.833,459.167 145.5,459.5C 145.785,461.288 145.452,462.955 144.5,464.5C 143.511,460.893 143.177,457.226 143.5,453.5 Z"/></g>
<g><path style="opacity:1" fill="#a9acc4" d="M 192.5,455.5 C 199.703,454.704 202.036,457.704 199.5,464.5C 198.686,462.234 198.186,459.9 198,457.5C 196.887,456.289 195.72,456.289 194.5,457.5C 193.686,459.766 193.186,462.1 193,464.5C 192.502,461.518 192.335,458.518 192.5,455.5 Z"/></g>
<g><path style="opacity:1" fill="#a9aeca" d="M 257.5,453.5 C 259.129,455.858 260.295,458.524 261,461.5C 261.689,458.592 262.855,455.925 264.5,453.5C 265.762,456.115 266.928,458.782 268,461.5C 268.27,458.638 269.104,455.972 270.5,453.5C 270.833,453.833 271.167,454.167 271.5,454.5C 270.346,457.452 269.346,460.452 268.5,463.5C 267.833,464.833 267.167,464.833 266.5,463.5C 265.82,461.111 264.986,458.778 264,456.5C 263.647,459.539 262.48,462.205 260.5,464.5C 258.885,460.991 257.885,457.325 257.5,453.5 Z"/></g>
<g><path style="opacity:1" fill="#b6bed3" d="M 274.5,455.5 C 278.851,454.533 281.185,456.2 281.5,460.5C 279.076,460.192 276.743,460.526 274.5,461.5C 276.236,464.105 278.069,464.105 280,461.5C 280.617,462.449 280.451,463.282 279.5,464C 272.416,464.475 270.749,461.642 274.5,455.5 Z"/></g>
<g><path style="opacity:1" fill="#b6bed3" d="M 776.5,455.5 C 780.851,454.533 783.185,456.2 783.5,460.5C 781.076,460.192 778.743,460.526 776.5,461.5C 778.236,464.105 780.069,464.105 782,461.5C 782.617,462.449 782.451,463.282 781.5,464C 774.416,464.475 772.749,461.642 776.5,455.5 Z"/></g>
<g><path style="opacity:1" fill="#a6acc7" d="M 998.5,452.5 C 1001.57,451.925 1003.57,453.091 1004.5,456C 1003.62,458.879 1001.96,461.213 999.5,463C 1001.17,463.333 1002.83,463.667 1004.5,464C 1001.83,464.667 999.167,464.667 996.5,464C 999.103,461.906 1001.1,459.406 1002.5,456.5C 1001.14,452.638 999.471,452.638 997.5,456.5C 997.167,456.167 996.833,455.833 996.5,455.5C 997.193,454.482 997.859,453.482 998.5,452.5 Z"/></g>
<g><path style="opacity:1" fill="#aaabc9" d="M 1009.5,449.5 C 1010.38,449.369 1011.04,449.702 1011.5,450.5C 1010.21,456.297 1008.54,461.963 1006.5,467.5C 1006.17,467.167 1005.83,466.833 1005.5,466.5C 1007.6,461.009 1008.93,455.342 1009.5,449.5 Z"/></g>
<g><path style="opacity:1" fill="#a2abc7" d="M 1025.5,452.5 C 1028.59,451.83 1030.26,452.997 1030.5,456C 1030.2,458.923 1028.87,461.257 1026.5,463C 1028.17,463.333 1029.83,463.667 1031.5,464C 1023.46,465.361 1022.3,463.861 1028,459.5C 1030.09,457.176 1029.92,455.176 1027.5,453.5C 1026.28,454.263 1025.28,455.263 1024.5,456.5C 1024.17,456.167 1023.83,455.833 1023.5,455.5C 1024.19,454.482 1024.86,453.482 1025.5,452.5 Z"/></g>
<g><path style="opacity:1" fill="#aaabc9" d="M 1036.5,449.5 C 1037.38,449.369 1038.04,449.702 1038.5,450.5C 1037.21,456.297 1035.54,461.963 1033.5,467.5C 1033.17,467.167 1032.83,466.833 1032.5,466.5C 1034.6,461.009 1035.93,455.342 1036.5,449.5 Z"/></g>
<g><path style="opacity:1" fill="#a2abc7" d="M 1061.5,452.5 C 1064.59,451.83 1066.26,452.997 1066.5,456C 1066.2,458.923 1064.87,461.257 1062.5,463C 1064.17,463.333 1065.83,463.667 1067.5,464C 1059.46,465.361 1058.3,463.861 1064,459.5C 1066.09,457.176 1065.92,455.176 1063.5,453.5C 1062.28,454.263 1061.28,455.263 1060.5,456.5C 1060.17,456.167 1059.83,455.833 1059.5,455.5C 1060.19,454.482 1060.86,453.482 1061.5,452.5 Z"/></g>
<g><path style="opacity:1" fill="#a1a8c4" d="M 283.5,452.5 C 284.29,453.609 284.79,454.942 285,456.5C 286.796,455.233 288.629,455.233 290.5,456.5C 291.777,459.034 291.777,461.534 290.5,464C 288.141,464.208 285.974,464.374 284,464.5C 283.501,460.514 283.334,456.514 283.5,452.5 Z"/></g>
<g><path style="opacity:1" fill="#f6f6f4" d="M 286.5,456.5 C 291.453,458.092 291.786,460.425 287.5,463.5C 283.967,461.58 283.633,459.246 286.5,456.5 Z"/></g>
<g><path style="opacity:1" fill="#73d6b0" d="M 602.5,452.5 C 604.262,452.357 605.929,452.691 607.5,453.5C 608.791,457.045 608.791,460.545 607.5,464C 604.975,464.896 602.808,464.396 601,462.5C 600.037,458.851 600.537,455.518 602.5,452.5 Z"/></g>
<g><path style="opacity:1" fill="#f7fbf1" d="M 602.5,454.5 C 604.167,454.5 605.833,454.5 607.5,454.5C 607.5,457.167 607.5,459.833 607.5,462.5C 605.856,462.714 604.356,462.38 603,461.5C 602.503,459.19 602.337,456.857 602.5,454.5 Z"/></g>
<g><path style="opacity:1" fill="#54d2b1" d="M 525.5,454.5 C 528.017,456.077 528.017,457.91 525.5,460C 527.014,461.439 527.347,462.939 526.5,464.5C 525.396,462.611 524.063,460.945 522.5,459.5C 521.702,461.078 521.202,462.744 521,464.5C 520.501,460.848 520.335,457.182 520.5,453.5C 522.415,453.216 524.081,453.549 525.5,454.5 Z"/></g>
<g><path style="opacity:1" fill="#ebfbf4" d="M 525.5,454.5 C 525.5,455.833 525.5,457.167 525.5,458.5C 524.167,458.5 522.833,458.5 521.5,458.5C 521.5,457.167 521.5,455.833 521.5,454.5C 522.833,454.5 524.167,454.5 525.5,454.5 Z"/></g>
<g><path style="opacity:1" fill="#5dd3b1" d="M 546.5,457.5 C 545.699,459.042 545.366,460.708 545.5,462.5C 544.197,459.645 544.197,456.645 545.5,453.5C 547.901,451.938 549.901,452.271 551.5,454.5C 549.78,454.746 547.78,454.746 545.5,454.5C 545.263,455.791 545.596,456.791 546.5,457.5 Z"/></g>
<g><path style="opacity:1" fill="#e8f9ef" d="M 546.5,457.5 C 548.948,457.085 550.281,458.085 550.5,460.5C 549.87,463.647 548.203,464.313 545.5,462.5C 545.366,460.708 545.699,459.042 546.5,457.5 Z"/></g>
<g><path style="opacity:1" fill="#b2b6ca" d="M 159.5,455.5 C 163.349,455.019 165.349,456.686 165.5,460.5C 163.396,460.201 161.396,460.534 159.5,461.5C 161.236,464.105 163.069,464.105 165,461.5C 165.617,462.449 165.451,463.282 164.5,464C 157.416,464.475 155.749,461.642 159.5,455.5 Z"/></g>
<g><path style="opacity:1" fill="#b2b6ca" d="M 169.5,455.5 C 173.349,455.019 175.349,456.686 175.5,460.5C 173.396,460.201 171.396,460.534 169.5,461.5C 171.236,464.105 173.069,464.105 175,461.5C 175.617,462.449 175.451,463.282 174.5,464C 167.416,464.475 165.749,461.642 169.5,455.5 Z"/></g>
<g><path style="opacity:1" fill="#b6b7c9" d="M 213.5,455.5 C 217.851,454.533 220.185,456.2 220.5,460.5C 218.076,460.192 215.743,460.526 213.5,461.5C 215.236,464.105 217.069,464.105 219,461.5C 219.617,462.449 219.451,463.282 218.5,464C 214.229,465.513 211.895,464.013 211.5,459.5C 211.752,457.927 212.418,456.594 213.5,455.5 Z"/></g>
<g><path style="opacity:1" fill="#a0a2bf" d="M 222.5,455.5 C 223.806,455.879 225.139,456.212 226.5,456.5C 223.983,458.457 222.816,461.124 223,464.5C 222.502,461.518 222.335,458.518 222.5,455.5 Z"/></g>
<g><path style="opacity:1" fill="#b6b7c9" d="M 244.5,455.5 C 248.851,454.533 251.185,456.2 251.5,460.5C 249.076,460.192 246.743,460.526 244.5,461.5C 246.236,464.105 248.069,464.105 250,461.5C 250.617,462.449 250.451,463.282 249.5,464C 245.229,465.513 242.895,464.013 242.5,459.5C 242.752,457.927 243.418,456.594 244.5,455.5 Z"/></g>
<g><path style="opacity:1" fill="#adb0c6" d="M 294.5,455.5 C 296.665,455.116 298.332,455.783 299.5,457.5C 299.333,457.833 299.167,458.167 299,458.5C 296.822,455.532 295.656,455.865 295.5,459.5C 299.343,459.191 300.676,460.691 299.5,464C 297.559,464.743 295.726,464.576 294,463.5C 293.333,462.833 293.333,462.167 294,461.5C 295.241,463.421 296.741,463.754 298.5,462.5C 297.345,461.05 295.845,460.05 294,459.5C 293.421,458.072 293.588,456.738 294.5,455.5 Z"/></g>
<g><path style="opacity:1" fill="#a7aec8" d="M 239.5,452.5 C 240.794,454.048 241.461,456.048 241.5,458.5C 241.167,460.5 240.833,462.5 240.5,464.5C 238.657,464.245 236.657,464.078 234.5,464C 231.425,460.197 232.092,457.364 236.5,455.5C 239.165,456.888 240.165,455.888 239.5,452.5 Z"/></g>
<g><path style="opacity:1" fill="#f7f7f5" d="M 235.5,456.5 C 240.2,458.289 240.534,460.622 236.5,463.5C 232.967,461.58 232.633,459.246 235.5,456.5 Z"/></g>
<g><path style="opacity:1" fill="#a5aec8" d="M 183.5,455.5 C 185.674,455.92 187.674,455.92 189.5,455.5C 190.833,458.5 190.833,461.5 189.5,464.5C 187.657,464.245 185.657,464.078 183.5,464C 180.899,461.17 180.899,458.337 183.5,455.5 Z"/></g>
<g><path style="opacity:1" fill="#f7f7f5" d="M 184.5,456.5 C 189.2,458.289 189.534,460.622 185.5,463.5C 181.967,461.58 181.633,459.246 184.5,456.5 Z"/></g>
<g><path style="opacity:1" fill="#69d6b8" d="M 579.5,452.5 C 584.131,451.822 586.131,453.822 585.5,458.5C 586.119,463.342 584.119,465.176 579.5,464C 576.864,460.1 576.864,456.266 579.5,452.5 Z"/></g>
<g><path style="opacity:1" fill="#f7faf0" d="M 579.5,454.5 C 582.93,453.755 584.597,455.089 584.5,458.5C 584.597,461.911 582.93,463.245 579.5,462.5C 579.5,459.833 579.5,457.167 579.5,454.5 Z"/></g>
<g><path style="opacity:1" fill="#69d6b8" d="M 592.5,452.5 C 597.131,451.822 599.131,453.822 598.5,458.5C 599.119,463.342 597.119,465.176 592.5,464C 589.864,460.1 589.864,456.266 592.5,452.5 Z"/></g>
<g><path style="opacity:1" fill="#f7faf0" d="M 592.5,454.5 C 595.93,453.755 597.597,455.089 597.5,458.5C 597.597,461.911 595.93,463.245 592.5,462.5C 592.5,459.833 592.5,457.167 592.5,454.5 Z"/></g>
<g><path style="opacity:1" fill="#a7afc9" d="M 763.5,453.5 C 768.768,452.185 772.101,454.018 773.5,459C 772.101,463.982 768.768,465.815 763.5,464.5C 763.5,460.833 763.5,457.167 763.5,453.5 Z"/></g>
<g><path style="opacity:1" fill="#faf9f7" d="M 765.5,454.5 C 771.643,455.026 772.976,457.86 769.5,463C 768.207,463.49 766.873,463.657 765.5,463.5C 765.5,460.5 765.5,457.5 765.5,454.5 Z"/></g>
<g><path style="opacity:1" fill="#59d5b2" d="M 546.5,457.5 C 549.639,455.806 551.639,456.806 552.5,460.5C 551.857,463.975 549.857,465.141 546.5,464C 545.944,463.617 545.611,463.117 545.5,462.5C 548.203,464.313 549.87,463.647 550.5,460.5C 550.281,458.085 548.948,457.085 546.5,457.5 Z"/></g>
<g><path style="opacity:1" fill="#a5abc6" d="M 1015.5,452.5 C 1017.72,452.178 1019.56,452.845 1021,454.5C 1022,457.993 1021.5,461.159 1019.5,464C 1016.78,465.033 1014.95,464.2 1014,461.5C 1013.07,458.177 1013.57,455.177 1015.5,452.5 Z"/></g>
<g><path style="opacity:1" fill="#f6f4f2" d="M 1016.5,453.5 C 1020.25,454.828 1021.42,457.494 1020,461.5C 1016.55,464.257 1015.05,463.257 1015.5,458.5C 1015.59,456.742 1015.92,455.076 1016.5,453.5 Z"/></g>
<g><path style="opacity:1" fill="#a5abc6" d="M 1051.5,452.5 C 1053.72,452.178 1055.56,452.845 1057,454.5C 1058,457.993 1057.5,461.159 1055.5,464C 1052.78,465.033 1050.95,464.2 1050,461.5C 1049.07,458.177 1049.57,455.177 1051.5,452.5 Z"/></g>
<g><path style="opacity:1" fill="#f6f4f2" d="M 1052.5,453.5 C 1056.25,454.828 1057.42,457.494 1056,461.5C 1052.55,464.257 1051.05,463.257 1051.5,458.5C 1051.59,456.742 1051.92,455.076 1052.5,453.5 Z"/></g>
<g><path style="opacity:1" fill="#fefefe" d="M 112.5,495.5 C 233.834,495.333 355.167,495.5 476.5,496C 477,496.5 477.5,497 478,497.5C 478.667,515.167 478.667,532.833 478,550.5C 477.5,551 477,551.5 476.5,552C 355.167,552.667 233.833,552.667 112.5,552C 112,551.5 111.5,551 111,550.5C 110.333,532.833 110.333,515.167 111,497.5C 111.717,496.956 112.217,496.289 112.5,495.5 Z"/></g>
<g><path style="opacity:1" fill="#fefefe" d="M 488.5,495.5 C 565.834,495.333 643.167,495.5 720.5,496C 721,496.5 721.5,497 722,497.5C 722.667,515.167 722.667,532.833 722,550.5C 721.5,551 721,551.5 720.5,552C 643.167,552.667 565.833,552.667 488.5,552C 488,551.5 487.5,551 487,550.5C 486.333,532.833 486.333,515.167 487,497.5C 487.717,496.956 488.217,496.289 488.5,495.5 Z"/></g>
<g><path style="opacity:1" fill="#fefefe" d="M 732.5,495.5 C 804.501,495.333 876.501,495.5 948.5,496C 949,496.5 949.5,497 950,497.5C 950.667,515.167 950.667,532.833 950,550.5C 949.5,551 949,551.5 948.5,552C 876.5,552.667 804.5,552.667 732.5,552C 732,551.5 731.5,551 731,550.5C 730.333,532.833 730.333,515.167 731,497.5C 731.717,496.956 732.217,496.289 732.5,495.5 Z"/></g>
<g><path style="opacity:1" fill="#fdfdfd" d="M 960.5,495.5 C 1033.83,495.333 1107.17,495.5 1180.5,496C 1181,496.5 1181.5,497 1182,497.5C 1182.67,515.167 1182.67,532.833 1182,550.5C 1181.5,551 1181,551.5 1180.5,552C 1107.17,552.667 1033.83,552.667 960.5,552C 960,551.5 959.5,551 959,550.5C 958.333,532.833 958.333,515.167 959,497.5C 959.717,496.956 960.217,496.289 960.5,495.5 Z"/></g>
<g><path style="opacity:1" fill="#eb577a" d="M 559.5,517.5 C 565.156,517.867 566.989,520.867 565,526.5C 563.174,530.037 560.84,530.371 558,527.5C 557.037,523.851 557.537,520.518 559.5,517.5 Z"/></g>
<g><path style="opacity:1" fill="#ec5a7a" d="M 569.5,517.5 C 571.722,517.178 573.556,517.845 575,519.5C 576.004,522.993 575.504,526.159 573.5,529C 571.299,529.825 569.466,529.325 568,527.5C 567.037,523.851 567.537,520.518 569.5,517.5 Z"/></g>
<g><path style="opacity:1" fill="#aaaac3" d="M 1016.5,517.5 C 1022.16,517.867 1023.99,520.867 1022,526.5C 1020.17,530.037 1017.84,530.371 1015,527.5C 1014.04,523.851 1014.54,520.518 1016.5,517.5 Z"/></g>
<g><path style="opacity:1" fill="#ee6578" d="M 532.5,516.5 C 533.812,517.812 535.146,519.146 536.5,520.5C 535.645,521.293 534.811,520.96 534,519.5C 533.833,520.167 533.667,520.833 533.5,521.5C 537.604,524.847 537.437,527.847 533,530.5C 531.513,529.845 530.347,528.845 529.5,527.5C 530.274,526.289 531.107,526.289 532,527.5C 532.167,527 532.333,526.5 532.5,526C 530.925,524.88 529.925,523.38 529.5,521.5C 530.267,519.643 531.267,517.976 532.5,516.5 Z"/></g>
<g><path style="opacity:1" fill="#e83352" d="M 551.5,518.5 C 552.209,517.596 553.209,517.263 554.5,517.5C 554.666,521.514 554.499,525.514 554,529.5C 554.094,525.367 553.26,521.701 551.5,518.5 Z"/></g>
<g><path style="opacity:1" fill="#f0666d" d="M 543.5,518.5 C 544.209,517.596 545.209,517.263 546.5,517.5C 546.824,521.555 546.491,525.555 545.5,529.5C 544.833,525.687 544.166,522.021 543.5,518.5 Z"/></g>
<g><path style="opacity:1" fill="#fcf1f4" d="M 560.5,518.5 C 561.496,518.414 562.329,518.748 563,519.5C 563.497,522.146 563.664,524.813 563.5,527.5C 558.787,527.532 557.287,525.199 559,520.5C 559.717,519.956 560.217,519.289 560.5,518.5 Z"/></g>
<g><path style="opacity:1" fill="#fdf4f3" d="M 570.5,518.5 C 571.496,518.414 572.329,518.748 573,519.5C 573.667,522.167 573.667,524.833 573,527.5C 572,528.833 571,528.833 570,527.5C 569.264,524.408 569.431,521.408 570.5,518.5 Z"/></g>
<g><path style="opacity:1" fill="#f2f6f7" d="M 1017.5,518.5 C 1018.5,518.414 1019.33,518.748 1020,519.5C 1020.67,522.167 1020.67,524.833 1020,527.5C 1016.99,528.344 1015.49,527.011 1015.5,523.5C 1015.44,521.486 1016.1,519.819 1017.5,518.5 Z"/></g>
<g><path style="opacity:1" fill="#aaabc3" d="M 796.5,520.5 C 798.877,520.784 801.044,520.784 803,520.5C 803.667,523.5 803.667,526.5 803,529.5C 800.766,529.626 798.432,529.293 796,528.5C 793.893,525.629 794.059,522.963 796.5,520.5 Z"/></g>
<g><path style="opacity:1" fill="#aaabc9" d="M 1010.5,514.5 C 1011.38,514.369 1012.04,514.702 1012.5,515.5C 1011.21,521.297 1009.54,526.963 1007.5,532.5C 1007.17,532.167 1006.83,531.833 1006.5,531.5C 1008.6,526.009 1009.93,520.342 1010.5,514.5 Z"/></g>
<g><path style="opacity:1" fill="#a2abc7" d="M 1062.5,517.5 C 1065.59,516.83 1067.26,517.997 1067.5,521C 1067.2,523.923 1065.87,526.257 1063.5,528C 1065.17,528.333 1066.83,528.667 1068.5,529C 1060.46,530.361 1059.3,528.861 1065,524.5C 1067.09,522.176 1066.92,520.176 1064.5,518.5C 1063.28,519.263 1062.28,520.263 1061.5,521.5C 1061.17,521.167 1060.83,520.833 1060.5,520.5C 1061.19,519.482 1061.86,518.482 1062.5,517.5 Z"/></g>
<g><path style="opacity:1" fill="#f4f4f3" d="M 798.5,521.5 C 803.553,523.492 803.72,525.825 799,528.5C 797.115,528.138 796.281,526.971 796.5,525C 796.862,523.566 797.528,522.399 798.5,521.5 Z"/></g>
<g><path style="opacity:1" fill="#eb5172" d="M 519.5,518.5 C 521.92,518.292 524.253,518.626 526.5,519.5C 527.78,521.724 527.447,523.724 525.5,525.5C 526.04,526.748 526.707,527.915 527.5,529C 525.522,528.208 523.855,526.708 522.5,524.5C 521.833,526.167 521.167,527.833 520.5,529.5C 519.511,525.893 519.177,522.226 519.5,518.5 Z"/></g>
<g><path style="opacity:1" fill="#fcf4f2" d="M 521.5,519.5 C 524.5,519.167 525.833,520.5 525.5,523.5C 524.167,523.5 522.833,523.5 521.5,523.5C 521.5,522.167 521.5,520.833 521.5,519.5 Z"/></g>
<g><path style="opacity:1" fill="#b2b6ca" d="M 191.5,520.5 C 195.349,520.019 197.349,521.686 197.5,525.5C 195.396,525.201 193.396,525.534 191.5,526.5C 193.236,529.105 195.069,529.105 197,526.5C 197.617,527.449 197.451,528.282 196.5,529C 189.416,529.475 187.749,526.642 191.5,520.5 Z"/></g>
<g><path style="opacity:1" fill="#adb0c6" d="M 787.5,520.5 C 789.665,520.116 791.332,520.783 792.5,522.5C 792.333,522.833 792.167,523.167 792,523.5C 789.822,520.532 788.656,520.865 788.5,524.5C 792.343,524.191 793.676,525.691 792.5,529C 790.559,529.743 788.726,529.576 787,528.5C 786.333,527.833 786.333,527.167 787,526.5C 788.241,528.421 789.741,528.754 791.5,527.5C 790.345,526.05 788.845,525.05 787,524.5C 786.421,523.072 786.588,521.738 787.5,520.5 Z"/></g>
<g><path style="opacity:1" fill="#b5b9ce" d="M 146.5,518.5 C 147.5,518.5 148.5,518.5 149.5,518.5C 150.869,522.092 151.702,525.759 152,529.5C 150.713,526.855 148.547,525.855 145.5,526.5C 145.719,527.675 145.386,528.675 144.5,529.5C 144.167,529 143.833,528.5 143.5,528C 144.828,524.876 145.828,521.71 146.5,518.5 Z"/></g>
<g><path style="opacity:1" fill="#b4b5c9" d="M 1001.5,518.5 C 1002.91,520.838 1004.24,523.338 1005.5,526C 1004.15,526.772 1003.32,527.939 1003,529.5C 1002.52,528.552 1002.35,527.552 1002.5,526.5C 1000.4,526.799 998.396,526.466 996.5,525.5C 998.58,523.427 1000.25,521.093 1001.5,518.5 Z"/></g>
<g><path style="opacity:1" fill="#b2b3c9" d="M 158.5,520.5 C 159.933,523.038 161.266,525.705 162.5,528.5C 163.086,528.291 163.586,527.957 164,527.5C 164.186,525.1 164.686,522.766 165.5,520.5C 166.484,523.428 166.817,526.428 166.5,529.5C 159.667,530.33 157,527.33 158.5,520.5 Z"/></g>
<g><path style="opacity:1" fill="#b2b3c9" d="M 179.5,520.5 C 180.933,523.038 182.266,525.705 183.5,528.5C 184.086,528.291 184.586,527.957 185,527.5C 185.186,525.1 185.686,522.766 186.5,520.5C 187.484,523.428 187.817,526.428 187.5,529.5C 180.667,530.33 178,527.33 179.5,520.5 Z"/></g>
<g><path style="opacity:1" fill="#eb526f" d="M 582.5,517.5 C 584.722,517.178 586.556,517.845 588,519.5C 589.004,522.993 588.504,526.159 586.5,529C 583.783,530.033 581.949,529.2 581,526.5C 580.068,523.177 580.568,520.177 582.5,517.5 Z"/></g>
<g><path style="opacity:1" fill="#fdeee9" d="M 583.5,518.5 C 587.254,519.828 588.421,522.494 587,526.5C 583.549,529.257 582.049,528.257 582.5,523.5C 582.592,521.742 582.925,520.076 583.5,518.5 Z"/></g>
<g><path style="opacity:1" fill="#eb526f" d="M 592.5,517.5 C 594.722,517.178 596.556,517.845 598,519.5C 599.004,522.993 598.504,526.159 596.5,529C 593.783,530.033 591.949,529.2 591,526.5C 590.068,523.177 590.568,520.177 592.5,517.5 Z"/></g>
<g><path style="opacity:1" fill="#fdeee9" d="M 593.5,518.5 C 597.254,519.828 598.421,522.494 597,526.5C 593.549,529.257 592.049,528.257 592.5,523.5C 592.592,521.742 592.925,520.076 593.5,518.5 Z"/></g>
<g><path style="opacity:1" fill="#a5abc6" d="M 1052.5,517.5 C 1054.72,517.178 1056.56,517.845 1058,519.5C 1059,522.993 1058.5,526.159 1056.5,529C 1053.78,530.033 1051.95,529.2 1051,526.5C 1050.07,523.177 1050.57,520.177 1052.5,517.5 Z"/></g>
<g><path style="opacity:1" fill="#f6f4f2" d="M 1053.5,518.5 C 1057.25,519.828 1058.42,522.494 1057,526.5C 1053.55,529.257 1052.05,528.257 1052.5,523.5C 1052.59,521.742 1052.92,520.076 1053.5,518.5 Z"/></g>
<g><path style="opacity:1" fill="#ee5678" d="M 577.5,527.5 C 578.797,528.849 578.63,530.182 577,531.5C 576.805,530.181 576.972,528.847 577.5,527.5 Z"/></g>
<g><path style="opacity:1" fill="#fefefe" d="M 112.5,560.5 C 233.834,560.333 355.167,560.5 476.5,561C 477,561.5 477.5,562 478,562.5C 478.667,580.167 478.667,597.833 478,615.5C 477.5,616 477,616.5 476.5,617C 355.167,617.667 233.833,617.667 112.5,617C 112,616.5 111.5,616 111,615.5C 110.333,597.833 110.333,580.167 111,562.5C 111.717,561.956 112.217,561.289 112.5,560.5 Z"/></g>
<g><path style="opacity:1" fill="#fefefe" d="M 488.5,560.5 C 565.834,560.333 643.167,560.5 720.5,561C 721,561.5 721.5,562 722,562.5C 722.667,580.167 722.667,597.833 722,615.5C 721.5,616 721,616.5 720.5,617C 643.167,617.667 565.833,617.667 488.5,617C 488,616.5 487.5,616 487,615.5C 486.333,597.833 486.333,580.167 487,562.5C 487.717,561.956 488.217,561.289 488.5,560.5 Z"/></g>
<g><path style="opacity:1" fill="#fefefe" d="M 732.5,560.5 C 804.501,560.333 876.501,560.5 948.5,561C 949,561.5 949.5,562 950,562.5C 950.667,580.167 950.667,597.833 950,615.5C 949.5,616 949,616.5 948.5,617C 876.5,617.667 804.5,617.667 732.5,617C 732,616.5 731.5,616 731,615.5C 730.333,597.833 730.333,580.167 731,562.5C 731.717,561.956 732.217,561.289 732.5,560.5 Z"/></g>
<g><path style="opacity:1" fill="#fefefe" d="M 960.5,560.5 C 1033.83,560.333 1107.17,560.5 1180.5,561C 1181,561.5 1181.5,562 1182,562.5C 1182.67,580.167 1182.67,597.833 1182,615.5C 1181.5,616 1181,616.5 1180.5,617C 1107.17,617.667 1033.83,617.667 960.5,617C 960,616.5 959.5,616 959,615.5C 958.333,597.833 958.333,580.167 959,562.5C 959.717,561.956 960.217,561.289 960.5,560.5 Z"/></g>
<g><path style="opacity:1" fill="#ef6e84" d="M 578.5,582.5 C 584.501,582.457 586.668,585.457 585,591.5C 583.695,594.306 581.528,595.14 578.5,594C 575.864,590.1 575.864,586.266 578.5,582.5 Z"/></g>
<g><path style="opacity:1" fill="#ef6e84" d="M 588.5,582.5 C 594.501,582.457 596.668,585.457 595,591.5C 593.695,594.306 591.528,595.14 588.5,594C 585.864,590.1 585.864,586.266 588.5,582.5 Z"/></g>
<g><path style="opacity:1" fill="#ee6578" d="M 532.5,581.5 C 533.812,582.812 535.146,584.146 536.5,585.5C 535.645,586.293 534.811,585.96 534,584.5C 533.833,585.167 533.667,585.833 533.5,586.5C 537.604,589.847 537.437,592.847 533,595.5C 531.513,594.845 530.347,593.845 529.5,592.5C 530.274,591.289 531.107,591.289 532,592.5C 532.167,592 532.333,591.5 532.5,591C 530.925,589.88 529.925,588.38 529.5,586.5C 530.267,584.643 531.267,582.976 532.5,581.5 Z"/></g>
<g><path style="opacity:1" fill="#e5356b" d="M 546.5,587.5 C 546.217,588.289 545.717,588.956 545,589.5C 544.503,587.19 544.337,584.857 544.5,582.5C 546.527,582.338 548.527,582.505 550.5,583C 548.866,583.494 547.199,583.66 545.5,583.5C 545.232,585.099 545.566,586.432 546.5,587.5 Z"/></g>
<g><path style="opacity:1" fill="#fdf6f1" d="M 578.5,584.5 C 580.167,584.5 581.833,584.5 583.5,584.5C 583.5,587.167 583.5,589.833 583.5,592.5C 581.856,592.714 580.356,592.38 579,591.5C 578.503,589.19 578.337,586.857 578.5,584.5 Z"/></g>
<g><path style="opacity:1" fill="#fdf6f1" d="M 588.5,584.5 C 590.167,584.5 591.833,584.5 593.5,584.5C 593.5,587.167 593.5,589.833 593.5,592.5C 591.856,592.714 590.356,592.38 589,591.5C 588.503,589.19 588.337,586.857 588.5,584.5 Z"/></g>
<g><path style="opacity:1" fill="#a8aec8" d="M 143.5,583.5 C 145.857,583.337 148.19,583.503 150.5,584C 148.866,584.494 147.199,584.66 145.5,584.5C 145.5,585.833 145.5,587.167 145.5,588.5C 150.833,588.833 150.833,589.167 145.5,589.5C 145.785,591.288 145.452,592.955 144.5,594.5C 143.511,590.893 143.177,587.226 143.5,583.5 Z"/></g>
<g><path style="opacity:1" fill="#adb3cc" d="M 214.5,586.5 C 217.688,586.51 221.022,586.343 224.5,586C 226.65,588.555 226.983,591.388 225.5,594.5C 223.5,583.833 221.5,583.833 219.5,594.5C 218.686,592.234 218.186,589.9 218,587.5C 216.989,586.663 215.822,586.33 214.5,586.5 Z"/></g>
<g><path style="opacity:1" fill="#ea4e6f" d="M 546.5,587.5 C 547.884,586.199 549.384,586.199 551,587.5C 552.848,593.653 550.848,595.653 545,593.5C 544.333,592.833 544.333,592.167 545,591.5C 549.058,594.589 550.725,593.589 550,588.5C 548.989,587.663 547.822,587.33 546.5,587.5 Z"/></g>
<g><path style="opacity:1" fill="#adaec6" d="M 768.5,591.5 C 770.467,588.941 772.467,586.274 774.5,583.5C 775.833,587.167 775.833,590.833 774.5,594.5C 773.686,592.234 773.186,589.9 773,587.5C 772.361,590.112 771.194,592.446 769.5,594.5C 768.614,593.675 768.281,592.675 768.5,591.5 Z"/></g>
<g><path style="opacity:1" fill="#a2abc7" d="M 993.5,582.5 C 996.59,581.83 998.257,582.997 998.5,586C 998.205,588.923 996.871,591.257 994.5,593C 996.167,593.333 997.833,593.667 999.5,594C 991.465,595.361 990.298,593.861 996,589.5C 998.088,587.176 997.921,585.176 995.5,583.5C 994.281,584.263 993.281,585.263 992.5,586.5C 992.167,586.167 991.833,585.833 991.5,585.5C 992.193,584.482 992.859,583.482 993.5,582.5 Z"/></g>
<g><path style="opacity:1" fill="#aaabc9" d="M 1014.5,579.5 C 1015.38,579.369 1016.04,579.702 1016.5,580.5C 1015.21,586.297 1013.54,591.963 1011.5,597.5C 1011.17,597.167 1010.83,596.833 1010.5,596.5C 1012.6,591.009 1013.93,585.342 1014.5,579.5 Z"/></g>
<g><path style="opacity:1" fill="#a2abc7" d="M 1025.5,582.5 C 1028.59,581.83 1030.26,582.997 1030.5,586C 1030.2,588.923 1028.87,591.257 1026.5,593C 1028.17,593.333 1029.83,593.667 1031.5,594C 1023.46,595.361 1022.3,593.861 1028,589.5C 1030.09,587.176 1029.92,585.176 1027.5,583.5C 1026.28,584.263 1025.28,585.263 1024.5,586.5C 1024.17,586.167 1023.83,585.833 1023.5,585.5C 1024.19,584.482 1024.86,583.482 1025.5,582.5 Z"/></g>
<g><path style="opacity:1" fill="#aaabc9" d="M 1036.5,579.5 C 1037.38,579.369 1038.04,579.702 1038.5,580.5C 1037.21,586.297 1035.54,591.963 1033.5,597.5C 1033.17,597.167 1032.83,596.833 1032.5,596.5C 1034.6,591.009 1035.93,585.342 1036.5,579.5 Z"/></g>
<g><path style="opacity:1" fill="#a2abc7" d="M 1061.5,582.5 C 1064.59,581.83 1066.26,582.997 1066.5,586C 1066.2,588.923 1064.87,591.257 1062.5,593C 1064.17,593.333 1065.83,593.667 1067.5,594C 1059.46,595.361 1058.3,593.861 1064,589.5C 1066.09,587.176 1065.92,585.176 1063.5,583.5C 1062.28,584.263 1061.28,585.263 1060.5,586.5C 1060.17,586.167 1059.83,585.833 1059.5,585.5C 1060.19,584.482 1060.86,583.482 1061.5,582.5 Z"/></g>
<g><path style="opacity:1" fill="#aeb2cc" d="M 768.5,591.5 C 767.442,590.4 766.608,589.066 766,587.5C 765.814,589.9 765.314,592.234 764.5,594.5C 763.167,590.833 763.167,587.167 764.5,583.5C 766.887,585.607 768.22,588.273 768.5,591.5 Z"/></g>
<g><path style="opacity:1" fill="#afadc3" d="M 794.5,585.5 C 797.346,585.03 799.679,585.863 801.5,588C 799.893,588.115 798.393,587.615 797,586.5C 796.228,586.645 795.561,586.978 795,587.5C 793.741,593.419 795.574,594.752 800.5,591.5C 801.293,592.355 800.96,593.189 799.5,594C 792.416,594.475 790.749,591.642 794.5,585.5 Z"/></g>
<g><path style="opacity:1" fill="#a2a6c2" d="M 199.5,585.5 C 205.643,586.026 206.976,588.86 203.5,594C 198.504,594.664 196.67,592.498 198,587.5C 198.717,586.956 199.217,586.289 199.5,585.5 Z"/></g>
<g><path style="opacity:1" fill="#f7f7f5" d="M 200.5,586.5 C 205.289,588.2 205.622,590.533 201.5,593.5C 197.967,591.58 197.633,589.246 200.5,586.5 Z"/></g>
<g><path style="opacity:1" fill="#eb5172" d="M 519.5,583.5 C 521.92,583.292 524.253,583.626 526.5,584.5C 527.78,586.724 527.447,588.724 525.5,590.5C 526.04,591.748 526.707,592.915 527.5,594C 525.522,593.208 523.855,591.708 522.5,589.5C 521.833,591.167 521.167,592.833 520.5,594.5C 519.511,590.893 519.177,587.226 519.5,583.5 Z"/></g>
<g><path style="opacity:1" fill="#fcf4f2" d="M 521.5,584.5 C 524.5,584.167 525.833,585.5 525.5,588.5C 524.167,588.5 522.833,588.5 521.5,588.5C 521.5,587.167 521.5,585.833 521.5,584.5 Z"/></g>
<g><path style="opacity:1" fill="#b2b6ca" d="M 153.5,585.5 C 157.349,585.019 159.349,586.686 159.5,590.5C 157.396,590.201 155.396,590.534 153.5,591.5C 155.236,594.105 157.069,594.105 159,591.5C 159.617,592.449 159.451,593.282 158.5,594C 151.416,594.475 149.749,591.642 153.5,585.5 Z"/></g>
<g><path style="opacity:1" fill="#bcc0d2" d="M 230.5,585.5 C 236.191,585.548 237.857,588.215 235.5,593.5C 228.409,594.531 226.742,591.864 230.5,585.5 Z"/></g>
<g><path style="opacity:1" fill="#a7a8bf" d="M 239.5,585.5 C 241.665,585.116 243.332,585.783 244.5,587.5C 244.333,587.833 244.167,588.167 244,588.5C 242.637,586.216 241.137,586.049 239.5,588C 240.891,589.02 242.391,589.853 244,590.5C 244.611,594.088 243.111,595.254 239.5,594C 238.549,593.282 238.383,592.449 239,591.5C 240.363,593.784 241.863,593.951 243.5,592C 242.109,590.98 240.609,590.147 239,589.5C 238.421,588.072 238.588,586.738 239.5,585.5 Z"/></g>
<g><path style="opacity:1" fill="#bcc0d2" d="M 779.5,585.5 C 785.191,585.548 786.857,588.215 784.5,593.5C 777.409,594.531 775.742,591.864 779.5,585.5 Z"/></g>
<g><path style="opacity:1" fill="#a0a2c0" d="M 787.5,585.5 C 788.806,585.879 790.139,586.212 791.5,586.5C 788.983,588.457 787.816,591.124 788,594.5C 787.502,591.518 787.335,588.518 787.5,585.5 Z"/></g>
<g><path style="opacity:1" fill="#b4b5c9" d="M 1005.5,583.5 C 1006.91,585.838 1008.24,588.338 1009.5,591C 1008.15,591.772 1007.32,592.939 1007,594.5C 1006.52,593.552 1006.35,592.552 1006.5,591.5C 1004.4,591.799 1002.4,591.466 1000.5,590.5C 1002.58,588.427 1004.25,586.093 1005.5,583.5 Z"/></g>
<g><path style="opacity:1" fill="#eb526f" d="M 555.5,582.5 C 557.722,582.178 559.556,582.845 561,584.5C 562.004,587.993 561.504,591.159 559.5,594C 556.783,595.033 554.949,594.2 554,591.5C 553.068,588.177 553.568,585.177 555.5,582.5 Z"/></g>
<g><path style="opacity:1" fill="#fdeee9" d="M 556.5,583.5 C 560.254,584.828 561.421,587.494 560,591.5C 556.549,594.257 555.049,593.257 555.5,588.5C 555.592,586.742 555.925,585.076 556.5,583.5 Z"/></g>
<g><path style="opacity:1" fill="#eb526f" d="M 565.5,582.5 C 567.722,582.178 569.556,582.845 571,584.5C 572.004,587.993 571.504,591.159 569.5,594C 566.783,595.033 564.949,594.2 564,591.5C 563.068,588.177 563.568,585.177 565.5,582.5 Z"/></g>
<g><path style="opacity:1" fill="#fdeee9" d="M 566.5,583.5 C 570.254,584.828 571.421,587.494 570,591.5C 566.549,594.257 565.049,593.257 565.5,588.5C 565.592,586.742 565.925,585.076 566.5,583.5 Z"/></g>
<g><path style="opacity:1" fill="#a8adc6" d="M 826.5,585.5 C 833.486,585.331 835.153,588.164 831.5,594C 824.416,594.475 822.749,591.642 826.5,585.5 Z"/></g>
<g><path style="opacity:1" fill="#f1f2f3" d="M 827.5,586.5 C 831.473,587.075 832.473,589.242 830.5,593C 825.382,592.824 824.382,590.658 827.5,586.5 Z"/></g>
<g><path style="opacity:1" fill="#a5abc6" d="M 1051.5,582.5 C 1053.72,582.178 1055.56,582.845 1057,584.5C 1058,587.993 1057.5,591.159 1055.5,594C 1052.78,595.033 1050.95,594.2 1050,591.5C 1049.07,588.177 1049.57,585.177 1051.5,582.5 Z"/></g>
<g><path style="opacity:1" fill="#f6f4f2" d="M 1052.5,583.5 C 1056.25,584.828 1057.42,587.494 1056,591.5C 1052.55,594.257 1051.05,593.257 1051.5,588.5C 1051.59,586.742 1051.92,585.076 1052.5,583.5 Z"/></g>
</svg>
