<?xml version="1.0" encoding="UTF-8"?>
<!DOCTYPE svg PUBLIC "-//W3C//DTD SVG 1.1//EN" "http://www.w3.org/Graphics/SVG/1.1/DTD/svg11.dtd">
<svg xmlns="http://www.w3.org/2000/svg" version="1.1" width="500px" height="500px" style="shape-rendering:geometricPrecision; text-rendering:geometricPrecision; image-rendering:optimizeQuality; fill-rule:evenodd; clip-rule:evenodd" xmlns:xlink="http://www.w3.org/1999/xlink">
<g><path style="opacity:1" fill="#000000" d="M -0.5,-0.5 C 166.167,-0.5 332.833,-0.5 499.5,-0.5C 499.5,166.167 499.5,332.833 499.5,499.5C 332.833,499.5 166.167,499.5 -0.5,499.5C -0.5,332.833 -0.5,166.167 -0.5,-0.5 Z"/></g>
<g><path style="opacity:1" fill="#8950fa" d="M 234.5,72.5 C 232.593,74.5972 230.759,76.9306 229,79.5C 228.667,79.1667 228.333,78.8333 228,78.5C 227.935,80.8833 227.102,81.55 225.5,80.5C 225.704,81.5294 225.204,82.5294 224,83.5C 223.667,83.1667 223.333,82.8333 223,82.5C 222.517,83.448 222.351,84.448 222.5,85.5C 221.07,85.5792 219.736,85.2458 218.5,84.5C 217.251,86.4755 215.751,86.8088 214,85.5C 213.667,86.1667 213.333,86.8333 213,87.5C 212.751,86.376 212.251,85.376 211.5,84.5C 208.63,88.7711 206.963,88.4377 206.5,83.5C 204.856,83.7135 203.356,83.3802 202,82.5C 199.965,84.9119 198.965,84.2452 199,80.5C 198.617,81.056 198.117,81.3893 197.5,81.5C 195.959,80.3332 194.625,78.9999 193.5,77.5C 193.938,77.5654 194.272,77.3988 194.5,77C 192.59,73.7614 190.59,70.5947 188.5,67.5C 188.613,64.9512 187.946,62.6179 186.5,60.5C 187.025,59.8076 187.692,59.3076 188.5,59C 187.874,55.6964 188.874,52.6964 191.5,50C 190.833,49.3333 190.167,48.6667 189.5,48C 190.938,47.7811 192.271,47.2811 193.5,46.5C 192.072,43.6502 192.739,42.6502 195.5,43.5C 198.105,40.1915 201.439,37.8581 205.5,36.5C 208.977,38.2553 211.81,37.5886 214,34.5C 214.317,36.3008 214.984,36.6341 216,35.5C 216.667,38.1667 217.333,38.1667 218,35.5C 218.915,36.3279 219.581,37.3279 220,38.5C 221.147,37.5419 222.147,37.8753 223,39.5C 224.011,38.6634 225.178,38.33 226.5,38.5C 226.343,39.8734 226.51,41.2068 227,42.5C 228.952,41.2998 230.452,41.7998 231.5,44C 231.167,44.3333 230.833,44.6667 230.5,45C 231.793,45.49 233.127,45.6567 234.5,45.5C 235.013,48.4485 235.013,51.2819 234.5,54C 235.448,54.4828 236.448,54.6495 237.5,54.5C 237.89,57.4658 237.223,60.1324 235.5,62.5C 236.376,63.2508 237.376,63.7508 238.5,64C 238.134,65.8315 236.801,67.3315 234.5,68.5C 234.977,69.4776 235.643,70.3109 236.5,71C 235.584,71.2784 234.918,71.7784 234.5,72.5 Z"/></g>
<g><path style="opacity:1" fill="#5d36aa" d="M 188.5,67.5 C 190.59,70.5947 192.59,73.7614 194.5,77C 194.272,77.3988 193.938,77.5654 193.5,77.5C 191.659,75.371 189.992,73.0376 188.5,70.5C 187.347,69.3132 187.347,68.3132 188.5,67.5 Z"/></g>
<g><path style="opacity:1" fill="#222223" d="M 234.5,72.5 C 245.77,74.1405 255.77,78.4739 264.5,85.5C 268.294,88.953 271.294,92.953 273.5,97.5C 240.254,105.216 206.921,112.549 173.5,119.5C 173.197,114.183 174.531,109.017 177.5,104C 176.906,103.536 176.239,103.369 175.5,103.5C 179.779,99.3696 183.612,94.703 187,89.5C 190.376,86.6174 193.876,83.9507 197.5,81.5C 198.117,81.3893 198.617,81.056 199,80.5C 198.965,84.2452 199.965,84.9119 202,82.5C 203.356,83.3802 204.856,83.7135 206.5,83.5C 206.963,88.4377 208.63,88.7711 211.5,84.5C 212.251,85.376 212.751,86.376 213,87.5C 213.333,86.8333 213.667,86.1667 214,85.5C 215.751,86.8088 217.251,86.4755 218.5,84.5C 219.736,85.2458 221.07,85.5792 222.5,85.5C 222.351,84.448 222.517,83.448 223,82.5C 223.333,82.8333 223.667,83.1667 224,83.5C 225.204,82.5294 225.704,81.5294 225.5,80.5C 227.102,81.55 227.935,80.8833 228,78.5C 228.333,78.8333 228.667,79.1667 229,79.5C 230.759,76.9306 232.593,74.5972 234.5,72.5 Z"/></g>
<g><path style="opacity:1" fill="#282d35" d="M 264.5,85.5 C 300.977,96.1587 337.31,107.325 373.5,119C 380.057,169.768 373.89,218.935 355,266.5C 333.846,312.656 299.179,343.656 251,359.5C 250.333,353.167 250.333,346.833 251,340.5C 257.859,339.942 264.692,339.109 271.5,338C 276.061,331.532 275.061,325.865 268.5,321C 267.167,320.333 265.833,319.667 264.5,319C 256.5,318.667 248.5,318.333 240.5,318C 238.508,317.426 237.008,316.259 236,314.5C 235.501,310.848 235.335,307.182 235.5,303.5C 278.815,307.6 309.982,290.267 329,251.5C 330.268,247.864 331.434,244.197 332.5,240.5C 332.471,238.971 331.804,237.804 330.5,237C 317.487,236.167 304.487,236.334 291.5,237.5C 280.438,258.531 263.104,267.031 239.5,263C 211.341,251.847 201.507,231.68 210,202.5C 223.946,178.293 244.112,171.127 270.5,181C 280.22,186.386 287.553,194.053 292.5,204C 305.167,204.667 317.833,204.667 330.5,204C 331.43,202.806 332.097,201.473 332.5,200C 327.152,180.438 316.485,164.605 300.5,152.5C 301.804,144.014 300.971,135.68 298,127.5C 295.425,123.093 291.592,121.093 286.5,121.5C 285.041,121.433 283.708,121.766 282.5,122.5C 282.304,116.848 280.971,111.514 278.5,106.5C 277.59,103.008 275.924,100.008 273.5,97.5C 271.294,92.953 268.294,88.953 264.5,85.5 Z"/></g>
<g><path style="opacity:1" fill="#874ff4" d="M 273.5,97.5 C 275.924,100.008 277.59,103.008 278.5,106.5C 243.49,114.036 208.49,121.702 173.5,129.5C 172.218,126.269 172.218,122.936 173.5,119.5C 206.921,112.549 240.254,105.216 273.5,97.5 Z"/></g>
<g><path style="opacity:1" fill="#282d35" d="M 175.5,103.5 C 176.239,103.369 176.906,103.536 177.5,104C 174.531,109.017 173.197,114.183 173.5,119.5C 172.218,122.936 172.218,126.269 173.5,129.5C 172.647,135.042 173.313,140.375 175.5,145.5C 173.833,146.167 172.167,146.833 170.5,147.5C 163.839,150.335 161.673,155.335 164,162.5C 164.955,167.615 166.289,172.615 168,177.5C 170.239,180.962 173.406,182.295 177.5,181.5C 174.007,185.012 171.507,189.345 170,194.5C 159.399,242.794 176.233,277.628 220.5,299C 224.511,300.335 228.511,301.669 232.5,303C 231.374,306.744 231.207,310.577 232,314.5C 233.245,318.742 236.078,321.242 240.5,322C 246.021,322.652 251.521,322.486 257,321.5C 264.206,321.161 268.706,324.328 270.5,331C 270.441,332.436 270.108,333.769 269.5,335C 263.167,335.333 256.833,335.667 250.5,336C 249.333,337.167 248.167,338.333 247,339.5C 246.831,345.859 246.331,352.193 245.5,358.5C 184.83,336.207 146.997,293.54 132,230.5C 123.692,194.902 121.358,158.902 125,122.5C 125.199,120.598 126.033,119.098 127.5,118C 143.427,112.853 159.427,108.019 175.5,103.5 Z"/></g>
<g><path style="opacity:1" fill="#222223" d="M 278.5,106.5 C 280.971,111.514 282.304,116.848 282.5,122.5C 281.209,122.263 280.209,122.596 279.5,123.5C 272.753,124.449 266.086,125.783 259.5,127.5C 256.627,127.802 253.961,128.469 251.5,129.5C 245.144,130.726 238.811,132.059 232.5,133.5C 229.933,133.721 227.599,134.388 225.5,135.5C 217.603,136.644 209.936,138.311 202.5,140.5C 199.505,140.294 196.838,140.96 194.5,142.5C 188.765,143.178 183.098,144.178 177.5,145.5C 176.833,145.5 176.167,145.5 175.5,145.5C 173.313,140.375 172.647,135.042 173.5,129.5C 208.49,121.702 243.49,114.036 278.5,106.5 Z"/></g>
<g><path style="opacity:1" fill="#8d55fb" d="M 286.5,121.5 C 291.592,121.093 295.425,123.093 298,127.5C 300.971,135.68 301.804,144.014 300.5,152.5C 298.539,154.312 296.206,155.312 293.5,155.5C 291.423,144.113 289.089,132.78 286.5,121.5 Z"/></g>
<g><path style="opacity:1" fill="#fbfafe" d="M 286.5,121.5 C 289.089,132.78 291.423,144.113 293.5,155.5C 291.228,156.319 288.894,156.985 286.5,157.5C 284.423,146.113 282.089,134.78 279.5,123.5C 280.209,122.596 281.209,122.263 282.5,122.5C 283.708,121.766 285.041,121.433 286.5,121.5 Z"/></g>
<g><path style="opacity:1" fill="#8d54fd" d="M 279.5,123.5 C 282.089,134.78 284.423,146.113 286.5,157.5C 279.833,158.833 273.167,160.167 266.5,161.5C 264.585,150.085 262.251,138.752 259.5,127.5C 266.086,125.783 272.753,124.449 279.5,123.5 Z"/></g>
<g><path style="opacity:1" fill="#faf7fe" d="M 259.5,127.5 C 262.251,138.752 264.585,150.085 266.5,161.5C 263.933,162.475 261.267,163.142 258.5,163.5C 256.381,152.116 254.047,140.782 251.5,129.5C 253.961,128.469 256.627,127.802 259.5,127.5 Z"/></g>
<g><path style="opacity:1" fill="#8d53fd" d="M 251.5,129.5 C 254.047,140.782 256.381,152.116 258.5,163.5C 252.575,165.148 246.575,166.481 240.5,167.5C 237.833,156.167 235.167,144.833 232.5,133.5C 238.811,132.059 245.144,130.726 251.5,129.5 Z"/></g>
<g><path style="opacity:1" fill="#f9f6fe" d="M 232.5,133.5 C 235.167,144.833 237.833,156.167 240.5,167.5C 237.933,168.475 235.267,169.142 232.5,169.5C 230.168,158.17 227.835,146.837 225.5,135.5C 227.599,134.388 229.933,133.721 232.5,133.5 Z"/></g>
<g><path style="opacity:1" fill="#8c53fd" d="M 225.5,135.5 C 227.835,146.837 230.168,158.17 232.5,169.5C 224.866,171.294 217.199,172.96 209.5,174.5C 207.678,163.058 205.345,151.724 202.5,140.5C 209.936,138.311 217.603,136.644 225.5,135.5 Z"/></g>
<g><path style="opacity:1" fill="#f9f6fe" d="M 202.5,140.5 C 205.345,151.724 207.678,163.058 209.5,174.5C 206.833,175.167 204.167,175.833 201.5,176.5C 199.585,165.085 197.251,153.752 194.5,142.5C 196.838,140.96 199.505,140.294 202.5,140.5 Z"/></g>
<g><path style="opacity:1" fill="#8d54fe" d="M 194.5,142.5 C 197.251,153.752 199.585,165.085 201.5,176.5C 195.905,177.886 190.238,178.886 184.5,179.5C 182.381,168.116 180.047,156.782 177.5,145.5C 183.098,144.178 188.765,143.178 194.5,142.5 Z"/></g>
<g><path style="opacity:1" fill="#faf7fe" d="M 175.5,145.5 C 176.167,145.5 176.833,145.5 177.5,145.5C 180.047,156.782 182.381,168.116 184.5,179.5C 182.401,180.612 180.067,181.279 177.5,181.5C 174.738,170.262 172.404,158.928 170.5,147.5C 172.167,146.833 173.833,146.167 175.5,145.5 Z"/></g>
<g><path style="opacity:1" fill="#8c54fc" d="M 170.5,147.5 C 172.404,158.928 174.738,170.262 177.5,181.5C 173.406,182.295 170.239,180.962 168,177.5C 166.289,172.615 164.955,167.615 164,162.5C 161.673,155.335 163.839,150.335 170.5,147.5 Z"/></g>
<g><path style="opacity:1" fill="#000000" d="M 244.5,200.5 C 262.469,199.303 270.969,207.637 270,225.5C 265.929,236.291 258.096,241.125 246.5,240C 233.349,235.198 228.516,226.031 232,212.5C 234.744,206.921 238.911,202.921 244.5,200.5 Z"/></g>
<g><path style="opacity:1" fill="#864ef5" d="M 243.5,376.5 C 241.833,376.5 240.167,376.5 238.5,376.5C 238.5,373.5 238.5,370.5 238.5,367.5C 239.29,366.206 240.29,365.039 241.5,364C 247.167,363.333 252.833,363.333 258.5,364C 260.333,364.5 261.5,365.667 262,367.5C 262.498,370.482 262.665,373.482 262.5,376.5C 256.167,376.5 249.833,376.5 243.5,376.5 Z"/></g>
<g><path style="opacity:1" fill="#282c35" d="M 238.5,367.5 C 238.5,370.5 238.5,373.5 238.5,376.5C 240.167,376.5 241.833,376.5 243.5,376.5C 269.02,377.819 294.687,377.819 320.5,376.5C 323.579,376.8 326.079,378.133 328,380.5C 328.667,401.833 328.667,423.167 328,444.5C 326.537,446.57 324.537,447.903 322,448.5C 275.142,448.874 228.309,448.374 181.5,447C 179.683,445.2 178.516,443.034 178,440.5C 177.833,436.833 177.667,433.167 177.5,429.5C 177.834,413.078 178.668,396.744 180,380.5C 181.419,379.54 182.919,378.707 184.5,378C 202.184,377.748 219.85,377.248 237.5,376.5C 237.19,373.287 237.523,370.287 238.5,367.5 Z"/></g>
<g><path style="opacity:1" fill="#8c55fb" d="M 194.5,384.5 C 233.835,384.333 273.168,384.5 312.5,385C 313.931,385.465 315.097,386.299 316,387.5C 316.667,404.167 316.667,420.833 316,437.5C 315.5,438.667 314.667,439.5 313.5,440C 273.159,440.706 232.825,440.373 192.5,439C 191.584,438.626 190.75,438.126 190,437.5C 189.333,420.833 189.333,404.167 190,387.5C 191.409,386.219 192.909,385.219 194.5,384.5 Z"/></g>
<g><path style="opacity:1" fill="#fcfaff" d="M 193.5,391.5 C 196.833,391.5 200.167,391.5 203.5,391.5C 203.5,394.833 203.5,398.167 203.5,401.5C 200.167,401.5 196.833,401.5 193.5,401.5C 193.5,398.167 193.5,394.833 193.5,391.5 Z"/></g>
<g><path style="opacity:1" fill="#fcfaff" d="M 209.5,391.5 C 212.833,391.5 216.167,391.5 219.5,391.5C 219.5,394.833 219.5,398.167 219.5,401.5C 216.167,401.5 212.833,401.5 209.5,401.5C 209.5,398.167 209.5,394.833 209.5,391.5 Z"/></g>
<g><path style="opacity:1" fill="#fefffe" d="M 224.5,391.5 C 227.833,391.5 231.167,391.5 234.5,391.5C 234.5,394.833 234.5,398.167 234.5,401.5C 231.167,401.5 227.833,401.5 224.5,401.5C 224.5,398.167 224.5,394.833 224.5,391.5 Z"/></g>
<g><path style="opacity:1" fill="#fcfaff" d="M 239.5,391.5 C 242.833,391.5 246.167,391.5 249.5,391.5C 249.5,394.833 249.5,398.167 249.5,401.5C 246.167,401.5 242.833,401.5 239.5,401.5C 239.5,398.167 239.5,394.833 239.5,391.5 Z"/></g>
<g><path style="opacity:1" fill="#fcfbff" d="M 255.5,391.5 C 258.833,391.5 262.167,391.5 265.5,391.5C 265.5,394.833 265.5,398.167 265.5,401.5C 262.167,401.5 258.833,401.5 255.5,401.5C 255.5,398.167 255.5,394.833 255.5,391.5 Z"/></g>
<g><path style="opacity:1" fill="#fefffe" d="M 270.5,391.5 C 273.833,391.5 277.167,391.5 280.5,391.5C 280.5,394.833 280.5,398.167 280.5,401.5C 277.167,401.5 273.833,401.5 270.5,401.5C 270.5,398.167 270.5,394.833 270.5,391.5 Z"/></g>
<g><path style="opacity:1" fill="#fcfaff" d="M 285.5,391.5 C 288.833,391.5 292.167,391.5 295.5,391.5C 295.5,394.833 295.5,398.167 295.5,401.5C 292.167,401.5 288.833,401.5 285.5,401.5C 285.5,398.167 285.5,394.833 285.5,391.5 Z"/></g>
<g><path style="opacity:1" fill="#fcfbff" d="M 301.5,391.5 C 304.833,391.5 308.167,391.5 311.5,391.5C 311.5,394.833 311.5,398.167 311.5,401.5C 308.167,401.5 304.833,401.5 301.5,401.5C 301.5,398.167 301.5,394.833 301.5,391.5 Z"/></g>
<g><path style="opacity:1" fill="#fbf9ff" d="M 194.5,406.5 C 197.833,406.5 201.167,406.5 204.5,406.5C 204.5,409.833 204.5,413.167 204.5,416.5C 201.167,416.5 197.833,416.5 194.5,416.5C 194.5,413.167 194.5,409.833 194.5,406.5 Z"/></g>
<g><path style="opacity:1" fill="#fefffe" d="M 209.5,406.5 C 212.833,406.5 216.167,406.5 219.5,406.5C 219.5,409.833 219.5,413.167 219.5,416.5C 216.167,416.5 212.833,416.5 209.5,416.5C 209.5,413.167 209.5,409.833 209.5,406.5 Z"/></g>
<g><path style="opacity:1" fill="#fcfbff" d="M 224.5,406.5 C 227.833,406.5 231.167,406.5 234.5,406.5C 234.5,409.833 234.5,413.167 234.5,416.5C 231.167,416.5 227.833,416.5 224.5,416.5C 224.5,413.167 224.5,409.833 224.5,406.5 Z"/></g>
<g><path style="opacity:1" fill="#fbf9ff" d="M 240.5,406.5 C 243.833,406.5 247.167,406.5 250.5,406.5C 250.5,409.833 250.5,413.167 250.5,416.5C 247.167,416.5 243.833,416.5 240.5,416.5C 240.5,413.167 240.5,409.833 240.5,406.5 Z"/></g>
<g><path style="opacity:1" fill="#fefffe" d="M 255.5,406.5 C 258.833,406.5 262.167,406.5 265.5,406.5C 265.5,409.833 265.5,413.167 265.5,416.5C 262.167,416.5 258.833,416.5 255.5,416.5C 255.5,413.167 255.5,409.833 255.5,406.5 Z"/></g>
<g><path style="opacity:1" fill="#fcfbff" d="M 270.5,406.5 C 273.833,406.5 277.167,406.5 280.5,406.5C 280.5,409.833 280.5,413.167 280.5,416.5C 277.167,416.5 273.833,416.5 270.5,416.5C 270.5,413.167 270.5,409.833 270.5,406.5 Z"/></g>
<g><path style="opacity:1" fill="#fbf9ff" d="M 286.5,406.5 C 289.833,406.5 293.167,406.5 296.5,406.5C 296.5,409.833 296.5,413.167 296.5,416.5C 293.167,416.5 289.833,416.5 286.5,416.5C 286.5,413.167 286.5,409.833 286.5,406.5 Z"/></g>
<g><path style="opacity:1" fill="#fefffe" d="M 301.5,406.5 C 304.833,406.5 308.167,406.5 311.5,406.5C 311.5,409.833 311.5,413.167 311.5,416.5C 308.167,416.5 304.833,416.5 301.5,416.5C 301.5,413.167 301.5,409.833 301.5,406.5 Z"/></g>
<g><path style="opacity:1" fill="#fefdff" d="M 194.5,421.5 C 197.833,421.5 201.167,421.5 204.5,421.5C 204.5,424.833 204.5,428.167 204.5,431.5C 201.167,431.5 197.833,431.5 194.5,431.5C 194.5,428.167 194.5,424.833 194.5,421.5 Z"/></g>
<g><path style="opacity:1" fill="#fdfcff" d="M 209.5,421.5 C 212.833,421.5 216.167,421.5 219.5,421.5C 219.5,424.833 219.5,428.167 219.5,431.5C 216.167,431.5 212.833,431.5 209.5,431.5C 209.5,428.167 209.5,424.833 209.5,421.5 Z"/></g>
<g><path style="opacity:1" fill="#fefeff" d="M 225.5,421.5 C 244.167,421.5 262.833,421.5 281.5,421.5C 281.5,424.833 281.5,428.167 281.5,431.5C 262.833,431.5 244.167,431.5 225.5,431.5C 225.5,428.167 225.5,424.833 225.5,421.5 Z"/></g>
<g><path style="opacity:1" fill="#fefeff" d="M 286.5,421.5 C 289.833,421.5 293.167,421.5 296.5,421.5C 296.5,424.833 296.5,428.167 296.5,431.5C 293.167,431.5 289.833,431.5 286.5,431.5C 286.5,428.167 286.5,424.833 286.5,421.5 Z"/></g>
<g><path style="opacity:1" fill="#fdfcff" d="M 301.5,421.5 C 304.833,421.5 308.167,421.5 311.5,421.5C 311.5,424.833 311.5,428.167 311.5,431.5C 308.167,431.5 304.833,431.5 301.5,431.5C 301.5,428.167 301.5,424.833 301.5,421.5 Z"/></g>
<g><path style="opacity:1" fill="#b793ff" d="M 225.5,421.5 C 225.5,424.833 225.5,428.167 225.5,431.5C 244.167,431.5 262.833,431.5 281.5,431.5C 262.674,432.497 243.674,432.83 224.5,432.5C 224.185,428.629 224.518,424.962 225.5,421.5 Z"/></g>
</svg>
